<svg width="102" height="105" viewBox="0 0 102 105" fill="none" xmlns="http://www.w3.org/2000/svg">
<path d="M47.6 7.43335C43.52 7.43335 40.8 10.2067 40.8 14.3667V42.1H13.6C9.52005 42.1 6.80005 44.8733 6.80005 49.0333V55.9667C6.80005 60.1267 9.52005 62.9 13.6 62.9H40.8V90.6334C40.8 94.7934 43.52 97.5667 47.6 97.5667H54.4C58.48 97.5667 61.2 94.7934 61.2 90.6334V62.9H88.4C92.48 62.9 95.2 60.1267 95.2 55.9667V49.0333C95.2 44.8733 92.48 42.1 88.4 42.1H61.2V14.3667C61.2 10.2067 58.48 7.43335 54.4 7.43335H47.6Z" fill="white"/>
</svg>
