<svg width="897" height="600" viewBox="0 0 897 600" fill="none" xmlns="http://www.w3.org/2000/svg">
<g clip-path="url(#clip0_2_15)">
<path opacity="0.1" d="M298.215 599.663C341.899 599.663 377.311 594.292 377.311 587.666C377.311 581.041 341.899 575.67 298.215 575.67C254.532 575.67 219.12 581.041 219.12 587.666C219.12 594.292 254.532 599.663 298.215 599.663Z" fill="#6C63FF"/>
<path opacity="0.1" d="M728.167 600C782.677 600 826.866 594.629 826.866 588.004C826.866 581.378 782.677 576.007 728.167 576.007C673.657 576.007 629.468 581.378 629.468 588.004C629.468 594.629 673.657 600 728.167 600Z" fill="#6C63FF"/>
<path opacity="0.1" d="M11.2344 259.243H93.6174V365.278H17.2656C17.0627 366.367 16.8679 367.463 16.6568 368.559H93.6174V454.074C93.4794 454.036 93.3577 453.99 93.2278 453.944C91.0523 453.131 88.8931 452.273 86.7339 451.353L85.354 450.763C83.1893 449.797 81.0247 448.775 78.8601 447.697C78.1052 447.321 77.3503 446.93 76.6035 446.531C64.5864 440.175 53.6695 432.12 44.2315 422.646C43.9555 422.393 43.6957 422.125 43.4197 421.88C42.1047 420.53 40.8141 419.166 39.564 417.771L38.184 416.238C36.7067 414.528 35.278 412.773 33.8899 410.995C33.687 410.734 33.4922 410.473 33.2811 410.228C27.6359 402.837 22.9486 394.833 19.3193 386.389C19.2057 386.136 19.1082 385.86 19.0027 385.622C17.8879 382.914 16.9003 380.18 16.0399 377.42C15.6665 376.263 15.3093 375.121 15.0009 373.917C14.8872 373.565 14.7898 373.22 14.7005 372.875C10.0899 355.881 9.54601 338.227 9.54601 320.697C9.54601 318.65 9.54601 316.596 9.54601 314.564C9.54601 307.474 9.6353 300.337 9.76517 293.208C9.76517 291.361 9.84635 289.521 9.88693 287.666C10.0006 282.96 10.1629 278.253 10.374 273.547C10.4227 272.236 10.4876 270.933 10.5607 269.63C10.5607 268.879 10.6013 268.127 10.6824 267.376C10.8773 264.647 11.0396 261.941 11.2344 259.243Z" fill="#6C63FF"/>
<path opacity="0.1" d="M93.6174 141.181H48.4281C55.7739 130.324 63.8 119.89 72.4636 109.937C79.1767 102.149 86.2631 94.5601 93.6174 87.2474V141.181Z" fill="#6C63FF"/>
<path opacity="0.1" d="M93.6175 144.462V255.962H11.4942C11.4942 255.64 11.551 255.311 11.5754 254.989C11.6484 254.107 11.7215 253.226 11.8026 252.352C11.8919 251.325 11.9893 250.29 12.0949 249.286C12.2004 248.282 12.314 247.055 12.4358 245.944C12.5576 244.832 12.6712 243.705 12.8092 242.594C12.9472 241.482 13.0689 240.371 13.2151 239.267C13.3612 238.163 13.491 237.044 13.6453 235.94C13.767 235.021 13.8969 234.108 14.0268 233.189C14.2135 231.893 14.4083 230.59 14.6194 229.302C14.6194 229.111 14.6762 228.911 14.7087 228.727C16.1902 219.3 18.209 209.955 20.7561 200.733C23.4223 191.059 26.827 181.581 30.9434 172.371C35.3183 162.737 40.4408 153.422 46.2689 144.5L93.6175 144.462Z" fill="#6C63FF"/>
<path opacity="0.1" d="M113.286 259.235V365.278H289.246V259.235H113.286ZM113.286 368.551V459.616C114.292 459.815 115.291 460.007 116.281 460.168C117.629 460.413 118.968 460.636 120.34 460.827C120.6 460.866 120.867 460.904 121.151 460.927C121.687 461.011 122.239 461.08 122.775 461.149C124.131 461.326 125.478 461.471 126.834 461.586C127.475 461.648 128.124 461.701 128.774 461.747L130.34 461.862C131.193 461.923 132.037 461.969 132.873 461.992C133.392 461.992 133.912 462.038 134.448 462.054C134.854 462.054 135.259 462.054 135.682 462.054C136.104 462.054 136.704 462.054 137.216 462.054C137.914 462.054 138.612 462.054 139.302 462.054H140.235C140.933 462.054 141.632 462.054 142.322 461.992H142.37C142.849 461.992 143.336 461.992 143.823 461.931C143.958 461.939 144.094 461.939 144.229 461.931C144.635 461.931 145.041 461.931 145.43 461.877H145.715L148.434 461.678C149.327 461.602 150.228 461.502 151.137 461.41L152.988 461.203C160.517 460.207 167.963 458.711 175.27 456.726C191.683 452.403 207.739 446.355 224.144 441.925C245.355 436.214 268.79 433.408 289.286 440.391V368.551H113.286ZM289.246 141.181V0.00766829C269.981 -0.189427 250.769 1.93833 232.075 6.33927C187.519 16.9098 147.541 39.837 113.286 69.1187V141.173H122.117V144.446H113.286V255.962H289.246V144.454H158.378V141.181H289.246ZM515.257 93.4947C504.234 93.1267 493.275 89.8306 483.364 84.7408C464.41 75.0057 449.271 59.9739 432.355 47.2877C397.206 20.8652 353.616 4.92118 308.898 0.965841V141.181H560.089L560.714 140.56L515.257 93.4947ZM538.14 89.662L562.403 114.804V83.0697C554.277 84.0202 547.158 86.2815 538.172 89.6313L538.14 89.662ZM562.403 482.229V368.551H510.703C510.565 368.069 510.427 367.578 510.265 367.087C510.419 367.578 510.549 368.069 510.695 368.551H308.93V450.763C310.846 452.104 312.737 453.515 314.612 454.948C316.634 456.481 318.63 458.098 320.635 459.685L322.657 461.264C323.623 462.031 324.597 462.797 325.579 463.518C327.527 465.01 329.494 466.482 331.48 467.933C332.462 468.7 333.469 469.39 334.467 470.11C350.318 481.554 367.039 491.882 384.495 501.009C388.407 503.053 392.355 505.049 396.338 506.996C398.992 508.276 401.663 509.548 404.342 510.783C408.368 512.638 412.426 514.426 416.518 516.148C454.236 532.137 494.12 543.109 535.031 548.749C544.117 550.017 553.238 551.013 562.395 551.739V482.221H563.206L562.403 482.229ZM308.93 144.454V255.962H562.435V144.454H308.93ZM308.93 259.235V365.278H562.435V259.235H308.93ZM582.112 82.9318V118.33L613.079 86.2432C602.819 84.6795 592.496 83.5629 582.112 82.8934V82.9318ZM582.112 259.274V365.278H828.676V259.235L582.112 259.274ZM827.775 490.646L828.644 368.551H582.112V552.958C597.993 553.588 613.899 553.408 629.761 552.421H630.037C637.613 551.971 645.154 551.317 652.66 550.459H652.83C692.873 546.058 732.028 536.192 769.071 521.169L827.775 490.646ZM876.22 276.697C875.294 274.635 874.328 272.589 873.346 270.565C871.512 266.732 869.572 263.007 867.575 259.281H848.336V365.278H896.976C896.951 335.261 888.907 304.599 876.244 276.659L876.22 276.697ZM848.336 368.59V473.605C862.039 461.203 873.614 447.014 881.951 430.794C891.975 411.263 896.562 390.114 896.935 368.574L848.336 368.59ZM848.336 228.375V255.97H865.773C860.498 246.471 854.686 237.246 848.361 228.336L848.336 228.375ZM681.119 103.736C679.836 103.276 678.554 102.808 677.263 102.356C663.651 97.6089 649.741 93.6613 635.613 90.5358L588.224 139.648L587.315 140.56L587.924 141.189H756.586C733.096 125.92 707.772 113.335 681.143 103.697L681.119 103.736ZM761.53 144.492H585.57L582.112 147.482V255.962H612.422H612.471H828.709V203.416C809.148 181.076 786.571 161.253 761.554 144.454L761.53 144.492Z" fill="#6C63FF"/>
<path opacity="0.1" d="M93.6175 200.703V255.962H11.4942C11.4942 255.64 11.551 255.311 11.5754 254.989C11.6484 254.107 11.7215 253.226 11.8026 252.352C11.8919 251.325 11.9893 250.29 12.0949 249.286C12.2004 248.282 12.314 247.055 12.4358 245.944C12.5576 244.832 12.6712 243.705 12.8092 242.594C12.9472 241.482 13.0689 240.371 13.2151 239.267C13.3612 238.163 13.491 237.044 13.6453 235.94C13.767 235.021 13.8969 234.108 14.0268 233.189C14.2135 231.893 14.4083 230.59 14.6194 229.302C14.6194 229.111 14.6762 228.911 14.7087 228.727C16.1902 219.3 18.209 209.955 20.7561 200.733L93.6175 200.703Z" fill="#6C63FF"/>
<path opacity="0.1" d="M11.2344 259.243H93.6174V365.278H17.2656C17.0627 366.367 16.8679 367.463 16.6568 368.559H93.6174V454.074C93.4794 454.036 93.3577 453.99 93.2278 453.944C91.0523 453.131 88.8931 452.273 86.7339 451.353L85.354 450.763C83.1893 449.797 81.0247 448.775 78.8601 447.697C78.1052 447.321 77.3503 446.93 76.6035 446.531C64.5864 440.175 53.6695 432.12 44.2315 422.646C43.9555 422.393 43.6957 422.125 43.4197 421.88C42.1047 420.53 40.8141 419.166 39.564 417.771L38.184 416.238C36.7067 414.528 35.278 412.773 33.8899 410.995C33.687 410.734 33.4922 410.473 33.2811 410.228C27.6359 402.837 22.9486 394.833 19.3193 386.389C19.2057 386.136 19.1082 385.86 19.0027 385.622C17.8879 382.914 16.9003 380.18 16.0399 377.42C15.6665 376.263 15.3093 375.121 15.0009 373.917C14.8872 373.565 14.7898 373.22 14.7005 372.875C10.0899 355.881 9.54601 338.227 9.54601 320.697C9.54601 318.65 9.54601 316.596 9.54601 314.564C9.54601 307.474 9.6353 300.337 9.76517 293.208C9.76517 291.361 9.84635 289.521 9.88693 287.666C10.0006 282.96 10.1629 278.253 10.374 273.547C10.4227 272.236 10.4876 270.933 10.5607 269.63C10.5607 268.879 10.6013 268.127 10.6824 267.376C10.8773 264.647 11.0396 261.941 11.2344 259.243Z" fill="#6C63FF"/>
<path opacity="0.1" d="M175.229 160.421V255.962H113.286V160.421H122.117V128.073H158.37V160.421H175.229Z" fill="#6C63FF"/>
<path opacity="0.1" d="M175.229 259.236H113.294V365.271H175.229V259.236Z" fill="#6C63FF"/>
<path opacity="0.1" d="M113.286 368.559H175.229V456.711C167.922 458.694 160.477 460.187 152.947 461.18L151.096 461.395C150.187 461.494 149.286 461.579 148.393 461.663C147.5 461.747 146.575 461.809 145.674 461.862H145.39C145 461.862 144.578 461.908 144.197 461.916H143.783C143.296 461.916 142.809 461.962 142.322 461.977C141.632 462.015 140.942 462.023 140.235 462.031C139.935 462.031 139.651 462.031 139.351 462.031C138.653 462.031 137.963 462.031 137.264 462.031H135.73C135.316 462.031 134.919 462.031 134.488 462.031L132.922 461.977C132.11 461.977 131.233 461.893 130.389 461.839L128.83 461.732L126.89 461.563C125.527 461.448 124.171 461.303 122.832 461.126L121.208 460.912L120.397 460.804C119.041 460.605 117.702 460.39 116.338 460.145C115.339 459.984 114.349 459.785 113.343 459.593L113.286 368.559Z" fill="#6C63FF"/>
<path opacity="0.1" d="M562.435 149.138H511.361V255.955H562.435V149.138Z" fill="#6C63FF"/>
<path opacity="0.1" d="M562.443 259.236V365.278H308.93V319.539H443.962V346.521H511.361V259.236H562.443Z" fill="#6C63FF"/>
<path opacity="0.1" d="M563.247 482.252H562.435V551.815C553.29 551.085 544.171 550.091 535.08 548.834C494.149 543.175 454.248 532.18 416.518 516.164C405.624 511.534 394.953 506.48 384.503 501.002C367.048 491.87 350.324 481.542 334.467 470.102C330.485 467.22 326.553 464.272 322.673 461.257C319.986 459.164 317.315 457.018 314.612 454.933C312.737 453.499 310.846 452.089 308.93 450.74V368.559H510.687C510.549 368.069 510.411 367.578 510.265 367.095C510.419 367.578 510.565 368.069 510.703 368.559H562.435V482.206C562.711 482.214 562.979 482.237 563.247 482.252Z" fill="#6C63FF"/>
<path opacity="0.1" d="M695.641 141.181H662.36V131.415H677.279V102.325C678.573 102.77 679.861 103.227 681.143 103.697V131.415H695.641V141.181Z" fill="#6C63FF"/>
<path opacity="0.1" d="M775.824 255.962H612.438C612.438 255.962 612.438 255.962 612.495 256.001L612.422 255.962H582.112V149.145H590.7V228.099H629.947V181.34H662.368V144.462H695.649V181.371H728.07V228.129H775.824V255.962Z" fill="#6C63FF"/>
<path opacity="0.1" d="M582.112 259.236V365.278H775.824V259.236H582.112ZM828.408 490.101L828.676 406.166H775.824V368.605H582.112V552.958C597.993 553.588 613.899 553.408 629.761 552.421H630.037C637.613 551.971 645.154 551.317 652.66 550.459H652.83C692.873 546.058 732.028 536.192 769.07 521.169" fill="#6C63FF"/>
<path opacity="0.1" d="M851.778 368.559H896.967C896.57 390.091 891.992 411.24 881.975 430.771C873.638 446.999 862.055 461.188 848.369 473.583V406.127H851.778V368.559Z" fill="#6C63FF"/>
<path opacity="0.1" d="M896.992 365.278H851.778V276.659H876.244C888.907 304.599 896.951 335.261 896.992 365.278Z" fill="#6C63FF"/>
<path opacity="0.1" d="M562.443 178.833H535.08V212.323H562.443V178.833Z" fill="#6C63FF"/>
<path opacity="0.1" d="M562.443 248.251H535.08V255.962H562.443V248.251Z" fill="#6C63FF"/>
<path opacity="0.1" d="M562.443 259.236H535.08V281.733H562.443V259.236Z" fill="#6C63FF"/>
<path opacity="0.1" d="M562.443 317.669H535.08V351.159H562.443V317.669Z" fill="#6C63FF"/>
<path opacity="0.1" d="M562.443 387.086H535.08V420.576H562.443V387.086Z" fill="#6C63FF"/>
<path opacity="0.1" d="M562.435 482.206C562.711 482.206 562.979 482.206 563.247 482.252H562.435V490.032H535.08V456.504H562.435V482.206Z" fill="#6C63FF"/>
<path opacity="0.1" d="M562.435 525.906V551.777C553.29 551.046 544.171 550.052 535.08 548.795V525.906H562.435Z" fill="#6C63FF"/>
<path opacity="0.1" d="M426.202 362.818H308.93V365.278H426.202V362.818Z" fill="#6C63FF"/>
<path opacity="0.1" d="M426.202 368.552H308.93V377.98H426.202V368.552Z" fill="#6C63FF"/>
<path opacity="0.1" d="M426.202 408.887H308.93V424.049H426.202V408.887Z" fill="#6C63FF"/>
<path opacity="0.1" d="M426.194 454.956V470.118H334.467C330.484 467.246 326.55 464.297 322.665 461.272C319.978 459.179 317.315 457.033 314.604 454.956H426.194Z" fill="#6C63FF"/>
<path opacity="0.1" d="M426.194 501.017V516.164H416.509C405.627 511.529 394.958 506.472 384.503 500.994L426.194 501.017Z" fill="#6C63FF"/>
<path opacity="0.1" d="M652.854 269.515H629.769V291.315H652.854V269.515Z" fill="#6C63FF"/>
<path opacity="0.1" d="M153.004 167.941H129.918V189.741H153.004V167.941Z" fill="#6C63FF"/>
<path opacity="0.1" d="M153.004 218.578H129.918V240.379H153.004V218.578Z" fill="#6C63FF"/>
<path opacity="0.1" d="M153.004 269.216H129.918V291.016H153.004V269.216Z" fill="#6C63FF"/>
<path opacity="0.1" d="M153.004 319.846H129.918V341.646H153.004V319.846Z" fill="#6C63FF"/>
<path opacity="0.1" d="M153.004 370.483H129.918V392.284H153.004V370.483Z" fill="#6C63FF"/>
<path opacity="0.1" d="M153.004 421.121H129.918V442.921H153.004V421.121Z" fill="#6C63FF"/>
<path opacity="0.1" d="M740.984 269.515H717.899V291.315H740.984V269.515Z" fill="#6C63FF"/>
<path opacity="0.1" d="M652.854 323.287H629.769V345.088H652.854V323.287Z" fill="#6C63FF"/>
<path opacity="0.1" d="M740.984 323.287H717.899V345.088H740.984V323.287Z" fill="#6C63FF"/>
<path opacity="0.1" d="M652.854 377.052H629.769V398.853H652.854V377.052Z" fill="#6C63FF"/>
<path opacity="0.1" d="M740.984 377.052H717.899V398.853H740.984V377.052Z" fill="#6C63FF"/>
<path opacity="0.1" d="M652.854 430.825H629.769V452.625H652.854V430.825Z" fill="#6C63FF"/>
<path opacity="0.1" d="M740.984 430.825H717.899V452.625H740.984V430.825Z" fill="#6C63FF"/>
<path opacity="0.1" d="M652.854 484.598H629.769V506.398H652.854V484.598Z" fill="#6C63FF"/>
<path opacity="0.1" d="M740.984 484.598H717.899V506.398H740.984V484.598Z" fill="#6C63FF"/>
<path opacity="0.1" d="M629.769 552.421V538.363H652.846V550.42L629.769 552.421Z" fill="#6C63FF"/>
<path opacity="0.1" d="M14.6112 228.712V241.184H93.6174V228.712H14.6112ZM22.4851 240.402H16.0399V229.478H22.5338L22.4851 240.402ZM30.3508 240.402H23.8569V229.478H30.3508V240.402ZM38.2003 240.402H31.7064V229.478H38.2003V240.402ZM46.066 240.402H39.5802V229.478H46.0741L46.066 240.402ZM53.9236 240.402H47.4297V229.478H53.9236V240.402ZM61.7893 240.402H55.2954V229.478H61.7893V240.402ZM69.655 240.402H63.1611V229.478H69.655V240.402ZM77.5126 240.402H71.0187V229.478H77.5126V240.402ZM85.3702 240.402H78.8763V229.478H85.3702V240.402ZM93.2278 240.402H86.7339V229.478H93.2278V240.402Z" fill="#6C63FF"/>
<path opacity="0.1" d="M14.6112 265V277.471H93.6174V265H14.6112ZM22.4851 276.682H16.0399V265.789H22.5338L22.4851 276.682ZM30.3508 276.682H23.8569V265.789H30.3508V276.682ZM38.2003 276.682H31.7064V265.789H38.2003V276.682ZM46.066 276.682H39.5802V265.789H46.0741L46.066 276.682ZM53.9236 276.682H47.4297V265.789H53.9236V276.682ZM61.7893 276.682H55.2954V265.789H61.7893V276.682ZM69.655 276.682H63.1611V265.789H69.655V276.682ZM77.5126 276.682H71.0187V265.789H77.5126V276.682ZM85.3702 276.682H78.8763V265.789H85.3702V276.682ZM93.2278 276.682H86.7339V265.789H93.2278V276.682Z" fill="#6C63FF"/>
<path opacity="0.1" d="M14.6112 301.303V313.798H93.6174V301.303H14.6112ZM22.4851 312.985H16.0399V302.085H22.5338L22.4851 312.985ZM30.3508 312.985H23.8569V302.085H30.3508V312.985ZM38.2003 312.985H31.7064V302.085H38.2003V312.985ZM46.066 312.985H39.5802V302.085H46.0741L46.066 312.985ZM53.9236 312.985H47.4297V302.085H53.9236V312.985ZM61.7893 312.985H55.2954V302.085H61.7893V312.985ZM69.655 312.985H63.1611V302.085H69.655V312.985ZM77.5126 312.985H71.0187V302.085H77.5126V312.985ZM85.3702 312.985H78.8763V302.085H85.3702V312.985ZM93.2278 312.985H86.7339V302.085H93.2278V312.985Z" fill="#6C63FF"/>
<path opacity="0.1" d="M14.6112 337.606V350.063H93.6174V337.606H14.6112ZM22.4851 349.288H16.0399V338.381H22.5338L22.4851 349.288ZM30.3508 349.288H23.8569V338.381H30.3508V349.288ZM38.2003 349.288H31.7064V338.381H38.2003V349.288ZM46.066 349.288H39.5802V338.381H46.0741L46.066 349.288ZM53.9236 349.288H47.4297V338.381H53.9236V349.288ZM61.7893 349.288H55.2954V338.381H61.7893V349.288ZM69.655 349.288H63.1611V338.381H69.655V349.288ZM77.5126 349.288H71.0187V338.381H77.5126V349.288ZM85.3702 349.288H78.8763V338.381H85.3702V349.288ZM93.2278 349.288H86.7339V338.381H93.2278V349.288Z" fill="#6C63FF"/>
<path opacity="0.1" d="M14.9522 373.902C15.2687 375.075 15.6259 376.248 15.9993 377.405V374.684H22.4932V385.584H19.019C19.1245 385.837 19.23 386.113 19.3355 386.351H93.6174V373.902H14.9522ZM30.3751 385.584H23.8813V374.684H30.3751V385.584ZM38.2246 385.584H31.7307V374.684H38.2246V385.584ZM46.0903 385.584H39.5802V374.684H46.0741L46.0903 385.584ZM53.9479 385.584H47.454V374.684H53.9479V385.584ZM61.8136 385.584H55.3198V374.684H61.8136V385.584ZM69.6794 385.584H63.1855V374.684H69.6794V385.584ZM77.537 385.584H71.0431V374.684H77.537V385.584ZM85.3946 385.584H78.9007V374.684H85.3946V385.584ZM93.2522 385.584H86.7583V374.684H93.2522V385.584Z" fill="#6C63FF"/>
<path opacity="0.1" d="M33.2974 410.205C33.5003 410.45 33.6951 410.726 33.9062 410.972H38.2003V416.207C38.663 416.728 39.1175 417.25 39.5883 417.74V410.941H46.0822V421.88H43.4522C43.7119 422.133 43.9636 422.401 44.2639 422.646H93.6418V410.205H33.2974ZM53.9236 421.88H47.4297V410.987H53.9236V421.88ZM61.7893 421.88H55.2954V410.987H61.7893V421.88ZM69.655 421.88H63.1611V410.987H69.655V421.88ZM77.5126 421.88H71.0187V410.987H77.5126V421.88ZM85.3702 421.88H78.8763V410.987H85.3702V421.88ZM93.2278 421.88H86.7339V410.987H93.2278V421.88Z" fill="#6C63FF"/>
<path opacity="0.1" d="M76.6359 446.501C77.3746 446.899 78.1295 447.267 78.8925 447.666V447.283H85.3864V450.732L86.7664 451.338V447.283H93.2603V453.913C93.3848 453.972 93.5154 454.018 93.6499 454.051V446.501H76.6359Z" fill="#6C63FF"/>
<path opacity="0.1" d="M612.438 255.962H612.487H612.438ZM562.435 482.199H563.247H562.435ZM510.265 367.087C510.419 367.578 510.549 368.069 510.695 368.552C510.565 368.069 510.427 367.578 510.265 367.087ZM612.438 255.939H612.487H612.438ZM122.15 141.158V144.431H158.41V141.158H122.15ZM562.435 482.199H563.247H562.435ZM510.265 367.087C510.419 367.578 510.549 368.069 510.695 368.552C510.565 368.069 510.427 367.578 510.265 367.087ZM612.438 255.939H612.487H612.438ZM562.435 482.175H563.247H562.435ZM510.265 367.087C510.419 367.578 510.549 368.069 510.695 368.552C510.565 368.069 510.427 367.578 510.265 367.087Z" fill="#6C63FF"/>
<path d="M374.697 291.031C374.697 291.031 371.499 290.61 371.499 286.21C371.499 281.81 369.21 273.593 369.21 273.593C369.21 273.554 367.229 259.282 364.493 257.013C361.758 254.744 358.243 241.421 358.243 241.421C358.243 241.421 357.642 234.193 356.417 232.637C355.191 231.081 353.535 227.271 351.092 221.836C348.648 216.401 338.461 212.638 338.461 212.638C338.461 212.638 320.043 202.55 314.823 199.262C314.349 198.991 313.906 198.675 313.5 198.319C312.591 197.192 308.63 197.169 308.63 197.169C308.216 194.701 307.818 191.864 307.688 189.297C307.688 189.021 307.688 188.745 307.648 188.469C313.468 185.22 317.852 180.098 319.994 174.042C320.092 173.751 320.173 173.445 320.262 173.153C320.611 173.045 320.932 172.869 321.204 172.636C321.477 172.404 321.695 172.121 321.845 171.804C322.316 170.815 322.324 169.658 322.908 168.738C323.59 167.65 324.889 167.067 325.912 166.247C328.493 164.177 329.159 160.689 329.037 157.516C328.956 154.948 328.517 152.357 328.688 149.805L328.737 149.161C328.785 148.777 328.842 148.394 328.915 148.026C329.313 146.125 330.181 144.331 330.668 142.446C331.156 140.56 331.204 138.437 330.068 136.812C328.404 134.428 324.938 133.953 321.894 133.707C318.444 133.431 315.359 133.792 313.151 131.086C312.118 129.671 310.955 128.345 309.677 127.123C309.222 126.724 304.807 124.179 304.807 124.011C300.497 122.126 295.612 121.772 291.048 123.014C288.759 123.643 286.599 124.67 284.278 125.183C279.269 126.302 273.506 125.091 269.253 127.797C266.882 129.33 265.462 131.768 264.131 134.144C263.048 136.101 261.95 138.056 260.835 140.008C259.041 143.22 257.215 146.485 256.46 150.042C256.301 150.816 256.203 151.6 256.167 152.388V152.426C256.167 152.71 256.167 152.993 256.167 153.277V153.637C256.167 153.906 256.167 154.166 256.216 154.404C256.265 154.641 256.257 154.718 256.281 154.879C256.305 155.04 256.346 155.4 256.395 155.646C256.443 155.891 256.541 156.32 256.638 156.657C256.679 156.803 256.736 156.941 256.784 157.079C256.865 157.34 256.963 157.593 257.068 157.846C257.125 157.976 257.182 158.114 257.247 158.244C257.369 158.512 257.515 158.773 257.661 159.011C257.726 159.118 257.775 159.218 257.84 159.317C258.066 159.674 258.315 160.017 258.586 160.344C260.323 162.391 262.88 163.694 264.772 165.611C264.772 165.687 264.772 165.764 264.772 165.833C264.772 166.047 264.772 166.254 264.772 166.469C264.872 170.743 266.077 174.929 268.281 178.663C270.485 182.397 273.622 185.566 277.419 187.894C277.419 188.185 277.459 188.484 277.475 188.775C277.634 191.051 277.604 193.334 277.386 195.605C277.056 195.238 276.642 194.945 276.175 194.748C275.709 194.552 275.202 194.457 274.691 194.471C274.342 194.455 273.993 194.483 273.652 194.555L273.579 194.501V194.57C271.793 194.984 269.593 196.74 267.491 201.73C267.491 201.73 261.095 208.537 256.224 208.253C251.354 207.969 239.024 215.336 239.024 215.336C239.024 215.336 226.994 222.71 224.412 230.222C222.969 234.482 221.24 238.65 219.233 242.701L204.362 271.638L201.619 294.596C201.619 294.596 203.137 304.806 202.836 306.362C202.536 307.918 209.079 321.954 209.079 321.954C209.079 321.954 230.695 357.82 239.527 359.66L240.16 359.238C240.538 359.424 240.939 359.566 241.353 359.66L243.172 358.449C243.281 359.798 243.234 361.155 243.034 362.496C241.816 366.037 243.488 389.148 245.615 393.679C247.742 398.209 246.987 457.608 246.987 457.608L246.686 462.851C246.686 462.851 246.686 463.02 246.759 463.311L246.686 464.553L246.906 464.66C247.133 466.323 247.059 468.011 246.686 469.65C245.923 471.95 245.615 478.45 245.615 478.45C245.615 478.45 239.535 515.152 242.417 522.526C245.298 529.9 247.75 537.979 247.75 537.979C247.75 537.979 250.794 547.178 247.896 548.749C244.998 550.321 236.759 552.958 238.455 556.79C239.998 560.332 245.85 569.821 246.719 571.209L246.646 571.937L245.452 584.148C245.646 585.76 246.109 587.333 246.824 588.809C248.131 591.468 250.672 594.228 255.502 593.929C256.314 593.875 257.255 593.783 258.164 593.668C267.004 592.549 277.889 588.824 277.889 588.824C277.324 588.485 276.806 588.081 276.347 587.62C275.913 587.223 275.568 586.746 275.335 586.219C275.102 585.692 274.985 585.125 274.992 584.554C275.121 582.331 270.714 571.738 269.618 569.131C269.447 568.756 269.358 568.541 269.358 568.541C269.358 568.541 279.407 558.622 277.735 549.83C277.735 549.83 266.614 543.698 270.275 540.333C273.936 536.968 280.479 527.302 280.479 527.302C280.479 527.302 280.779 491.159 280.479 485.763C280.166 482.017 280.354 478.249 281.039 474.548C281.161 473.989 281.307 473.445 281.461 472.908C286.524 473.622 291.635 473.988 296.754 474.004C298.621 474.004 300.521 474.004 302.436 473.897C302.436 474.408 302.461 474.96 302.509 475.553C302.931 484.506 303.719 500.204 304.36 506.038C305.269 514.401 310.294 536.937 310.294 536.937C310.294 536.937 300.707 542.747 311.966 557.066C311.966 557.066 311.966 562.256 311.219 563.007C310.422 565.463 309.78 567.961 309.295 570.488C308.825 573.186 308.63 575.915 309.393 577.333C311.219 580.722 322.178 580.446 322.178 580.446L322.446 580.4C324.514 580.198 326.605 580.386 328.596 580.953C330.588 581.52 332.44 582.455 334.045 583.703C338.21 586.862 354.014 585.474 362.57 584.47C365.922 584.071 368.163 583.703 368.163 583.703C368.271 583.345 368.31 582.971 368.276 582.6C368.187 580.614 366.539 576.26 355.37 572.374C355.37 572.374 344.866 565.705 345.012 559.895H344.793H343.575C344.46 559.849 345.028 559.895 345.028 559.895C345.028 559.895 340.913 545.714 342.593 544.564C344.273 543.414 339.24 527.7 339.24 527.7C339.24 527.7 336.359 501.331 336.205 499.484C336.211 497.899 336.465 496.323 336.959 494.808L336.205 480.351C336.205 480.351 336.058 475.545 336.205 473.981C336.18 472.624 336.063 471.269 335.855 469.926C335.782 469.39 335.709 468.83 335.628 468.278C339.565 467.335 342.122 466.461 342.122 466.461L341.667 416.138C345.012 410.006 345.629 396.553 345.613 387.01C345.613 380.877 345.32 376.34 345.32 376.34L349.89 369.295C349.89 369.295 350.946 360.863 349.273 359.016C348.535 358.18 348.868 357.314 349.476 356.601C349.793 356.364 350.126 356.149 350.475 355.957C350.475 355.957 350.426 355.888 350.369 355.789C350.688 355.537 351.028 355.309 351.384 355.106C351.384 355.106 349.76 352.73 351.214 351.726C352.577 352.6 353.795 353.259 354.72 353.796C354.655 354.355 354.59 354.677 354.59 354.677L354.98 353.911C355.873 354.386 356.417 354.677 356.417 354.677C356.417 354.677 363.576 341.209 363.422 339.224C363.268 337.238 368.292 328.875 368.292 328.875C368.292 328.875 368.901 324.483 371.645 322.644C374.389 320.804 373.772 307.474 373.772 307.474C373.772 307.474 374.535 300.529 376.361 297.693C378.187 294.857 374.697 291.031 374.697 291.031ZM237.709 285.121L237.847 288.333C237.035 287.099 236.45 286.21 236.45 286.21L237.709 285.121Z" fill="url(#paint0_linear_2_15)"/>
<path d="M356.806 348.859L355.053 355.911C355.053 355.911 341.01 349.143 338.477 340.542C335.945 331.942 342.715 328.676 342.715 328.676L355.8 333.912L356.806 348.859Z" fill="white"/>
<path opacity="0.1" d="M356.806 348.859L355.053 355.911C355.053 355.911 341.01 349.143 338.477 340.542C335.945 331.942 342.715 328.676 342.715 328.676L355.8 333.912L356.806 348.859Z" fill="black"/>
<path d="M277.995 588.87C277.995 588.87 265.007 593.377 256.078 593.944C251.338 594.243 248.846 591.499 247.563 588.855C246.862 587.384 246.41 585.82 246.224 584.217L247.384 572.067L248.001 565.598L266.972 560.945L269.658 568.702L269.91 569.293C270.99 571.883 275.316 582.423 275.186 584.623C275.181 585.187 275.296 585.745 275.525 586.265C275.754 586.786 276.091 587.257 276.518 587.651C276.953 588.115 277.45 588.525 277.995 588.87Z" fill="white"/>
<path d="M366.71 582.692C366.742 583.06 366.704 583.432 366.596 583.788C366.596 583.788 338.818 588.165 333.136 583.788C331.534 582.509 329.667 581.561 327.654 581.004C325.641 580.447 323.527 580.293 321.447 580.553C321.447 580.553 310.7 580.829 308.906 577.487C308.159 576.084 308.354 573.363 308.817 570.68C309.289 568.166 309.917 565.681 310.7 563.237L311.13 562.915L313.687 560.976L343.624 560.14H343.851C343.705 565.92 354.014 572.55 354.014 572.55C364.964 576.383 366.58 580.714 366.71 582.692Z" fill="white"/>
<path opacity="0.1" d="M366.71 582.692C366.738 583.061 366.697 583.432 366.588 583.788C366.588 583.788 338.818 588.165 333.136 583.788C331.535 582.51 329.669 581.562 327.658 581.005C325.646 580.448 323.534 580.294 321.455 580.553C321.455 580.553 310.7 580.829 308.914 577.487C308.167 576.076 308.354 573.363 308.817 570.68C312.956 571.071 319.491 572.044 322.056 574.367C325.936 577.901 332.511 581.427 336.545 581.703C339.703 581.894 358.592 582.462 366.71 582.692Z" fill="black"/>
<path opacity="0.1" d="M277.995 588.87C277.995 588.87 265.007 593.377 256.078 593.944C251.338 594.243 248.846 591.499 247.571 588.847C250.875 589.897 255.461 591.001 257.872 589.989C260.729 588.793 270.86 588.019 276.542 587.689C276.974 588.136 277.462 588.533 277.995 588.87Z" fill="black"/>
<path d="M297.266 225.646C286.551 221.713 272.767 208.721 276.209 202.65C276.974 201.118 277.428 199.464 277.549 197.774C277.77 195.481 277.803 193.174 277.646 190.876C277.405 187.111 276.925 183.364 276.209 179.654C276.209 179.654 309.661 180.366 307.713 185.019C307.144 186.384 307.055 188.752 307.209 191.405C307.364 194.057 307.769 197.054 308.192 199.591C308.776 203.071 309.36 205.723 309.36 205.723C309.36 205.723 307.315 208.429 306.113 208.575C304.912 208.721 312.64 231.249 297.266 225.646Z" fill="#CF6F80"/>
<path opacity="0.1" d="M269.886 569.292L269.634 569.553C259.634 558.132 247.539 572.366 247.539 572.366L247.36 572.067L247.977 565.598L266.947 560.945L269.634 568.702L269.886 569.292Z" fill="black"/>
<path opacity="0.1" d="M343.859 560.945C343.859 560.945 336.554 560.799 332.657 564.049C328.761 567.299 309.929 564.755 310.74 564.049C310.981 563.7 311.126 563.3 311.162 562.884L313.719 560.945L343.656 560.109C343.77 560.623 343.859 560.945 343.859 560.945Z" fill="black"/>
<path d="M282.33 471.252C281.786 472.523 281.372 473.839 281.096 475.185C280.419 478.868 280.231 482.618 280.536 486.345C280.836 491.711 280.536 527.669 280.536 527.669C280.536 527.669 274.115 537.259 270.535 540.639C266.955 544.02 277.841 550.091 277.841 550.091C279.464 558.829 269.626 568.702 269.626 568.702C259.625 557.281 247.531 571.523 247.531 571.523C247.531 571.523 240.956 560.792 239.316 556.959C237.676 553.126 245.737 550.474 248.57 548.918C251.403 547.362 248.432 538.186 248.432 538.186C248.432 538.186 246.037 530.145 243.196 522.81C240.355 515.474 246.329 478.956 246.329 478.956C246.329 478.956 246.638 472.471 247.376 470.21C247.749 468.578 247.823 466.898 247.596 465.243C247.547 464.683 247.49 464.215 247.449 463.901C247.409 463.587 247.376 463.441 247.376 463.441L247.49 463.257L251.549 456.113C251.549 456.113 284.278 466.753 282.33 471.252Z" fill="#6C63FF"/>
<path d="M343.859 560.102C343.859 560.102 336.554 559.956 332.657 563.168C328.761 566.38 309.929 563.873 310.74 563.168C311.552 562.463 311.487 557.242 311.487 557.242C300.439 543 309.864 537.22 309.864 537.22C309.864 537.22 304.928 514.799 304.035 506.482C303.41 500.672 302.639 485.058 302.225 476.143C302.047 472.31 301.941 469.673 301.941 469.673L310.968 467.956L312.128 467.734L333.899 463.61C333.899 463.61 334.5 467.443 334.906 470.578C335.108 471.916 335.222 473.265 335.247 474.617C335.101 476.15 335.247 480.949 335.247 480.949L335.985 495.337C335.503 496.846 335.254 498.413 335.247 499.99C335.393 501.822 338.226 528.053 338.226 528.053C338.226 528.053 343.153 543.705 341.473 544.832C339.792 545.959 343.859 560.102 343.859 560.102Z" fill="#6C63FF"/>
<path opacity="0.1" d="M307.713 185.019C307.144 186.384 307.055 188.752 307.209 191.405C302.729 193.953 297.578 195.255 292.348 195.163C287.119 195.071 282.023 193.587 277.646 190.883C277.405 187.116 276.925 183.366 276.209 179.654C276.209 179.654 309.661 180.351 307.713 185.019Z" fill="black"/>
<path d="M320.644 168.079C320.65 170.841 320.19 173.587 319.28 176.212C317.246 182.094 313.076 187.108 307.506 190.367C301.936 193.627 295.326 194.922 288.843 194.024C282.359 193.126 276.421 190.092 272.077 185.46C267.733 180.827 265.264 174.893 265.105 168.707C265.105 168.493 265.105 168.293 265.105 168.079C265.042 164.597 265.713 161.138 267.081 157.904C268.448 154.67 270.484 151.725 273.069 149.242C275.655 146.758 278.738 144.786 282.139 143.439C285.54 142.093 289.19 141.399 292.878 141.399C296.566 141.399 300.217 142.093 303.618 143.439C307.019 144.786 310.102 146.758 312.687 149.242C315.272 151.725 317.308 154.67 318.675 157.904C320.043 161.138 320.715 164.597 320.652 168.079H320.644Z" fill="#CF6F80"/>
<path opacity="0.1" d="M297.266 225.646C286.551 221.713 272.767 208.721 276.209 202.65C276.974 201.118 277.428 199.464 277.549 197.774L292.217 209.158L301.292 216.187L308.192 199.599C308.776 203.079 309.36 205.731 309.36 205.731C309.36 205.731 307.315 208.437 306.113 208.583C304.912 208.728 312.64 231.249 297.266 225.646Z" fill="black"/>
<path d="M335.198 275.954L322.949 470.271L306.974 471.26L265.608 358.587L272.394 224.818L273.823 196.556L292.217 210.821L301.3 217.85L308.403 200.779L321.61 211.649L335.198 275.954Z" fill="#6C63FF"/>
<path opacity="0.1" d="M282.33 471.252C281.786 472.523 281.372 473.839 281.096 475.185C269.472 473.49 258.182 470.159 247.604 465.304L247.384 465.197L247.458 463.962L247.498 463.319L251.557 456.174C251.557 456.174 284.278 466.753 282.33 471.252Z" fill="black"/>
<path opacity="0.1" d="M311.154 475.215C308.183 475.692 305.186 476.015 302.177 476.181C301.998 472.348 301.892 469.712 301.892 469.712L310.919 467.994L311.154 475.215Z" fill="black"/>
<path opacity="0.1" d="M334.857 470.616C329.086 472.034 320.173 473.629 312.193 472.632L312.08 467.772L333.851 463.648C333.851 463.648 334.451 467.443 334.857 470.616Z" fill="black"/>
<path opacity="0.1" d="M312.047 473.521C278.766 478.887 248.285 463.503 248.285 463.503L248.578 458.29C248.578 458.29 249.333 399.198 247.238 394.667C245.144 390.137 243.512 367.164 244.698 363.638C245.883 360.112 240.371 307.236 240.371 307.236L239.478 285.773L206.798 273.271L221.409 244.51C223.382 240.478 225.08 236.33 226.49 232.092C229.031 224.626 240.826 217.291 240.826 217.291C240.826 217.291 252.92 209.962 257.702 210.238C262.483 210.514 268.749 203.753 268.749 203.753C273.376 192.616 277.565 197.659 277.565 197.659C277.565 198.188 277.565 197.66 277.337 199.308C275.714 211.534 303.589 250.167 303.987 250.85L306.641 311.912L309.328 389.187L312.047 473.521Z" fill="black"/>
<path d="M311.154 473.521C277.873 478.887 247.384 463.503 247.384 463.503L247.685 458.29C247.685 458.29 248.44 399.198 246.337 394.667C244.235 390.137 242.611 367.164 243.805 363.638C244.998 360.112 239.478 307.236 239.478 307.236L238.577 285.773L205.88 273.225L220.492 244.464C222.461 240.43 224.158 236.283 225.573 232.046C228.106 224.58 239.908 217.245 239.908 217.245C239.908 217.245 252.003 209.916 256.776 210.192C261.549 210.468 267.824 203.707 267.824 203.707C272.459 192.57 277.565 197.614 277.565 197.614C277.565 198.142 277.078 198.38 277.337 199.262C280.909 211.12 302.696 250.121 303.094 250.804L305.781 311.866L308.468 389.141L311.154 473.521Z" fill="white"/>
<path opacity="0.1" d="M302.185 252.544C298.605 251.133 279.643 230.69 279.643 230.69V226.037C278.953 224.504 274.854 225.439 271.525 226.512L272.954 198.25L274.578 199.522C278.133 211.373 301.771 251.861 302.185 252.544Z" fill="black"/>
<path d="M303.086 250.85C299.498 249.439 280.536 228.996 280.536 228.996V224.343C279.846 222.81 275.746 223.745 272.418 224.818L273.855 196.556L275.479 197.828C279.042 209.679 302.688 250.175 303.086 250.85Z" fill="white"/>
<path opacity="0.1" d="M248.285 352.807C248.732 352.807 271.428 350.553 271.428 350.553C271.428 350.553 285.171 376.071 284.27 382.28C283.369 388.489 281.737 393.985 276.209 393.012C270.681 392.038 246.459 393.778 246.459 393.778L248.285 352.807Z" fill="black"/>
<path d="M247.384 351.113C247.831 351.113 270.527 348.859 270.527 348.859C270.527 348.859 284.262 374.385 283.369 380.586C282.476 386.787 280.828 392.291 275.308 391.318C269.788 390.344 245.558 392.084 245.558 392.084L247.384 351.113Z" fill="white"/>
<path d="M264.488 339.132C264.488 339.132 285.317 349.702 285.763 352.929C286.21 356.157 275.162 351.519 272.776 350.959C271.205 350.602 269.606 350.366 267.994 350.254L252.076 350.661L264.488 339.132Z" fill="#CF6F80"/>
<path opacity="0.1" d="M296.373 253.862C297.583 253.862 298.564 252.935 298.564 251.792C298.564 250.649 297.583 249.723 296.373 249.723C295.162 249.723 294.181 250.649 294.181 251.792C294.181 252.935 295.162 253.862 296.373 253.862Z" fill="black"/>
<path d="M296.373 253.019C297.583 253.019 298.564 252.092 298.564 250.949C298.564 249.806 297.583 248.88 296.373 248.88C295.162 248.88 294.181 249.806 294.181 250.949C294.181 252.092 295.162 253.019 296.373 253.019Z" fill="#3F3D56"/>
<path opacity="0.1" d="M300.407 343.455C301.617 343.455 302.599 342.528 302.599 341.385C302.599 340.242 301.617 339.316 300.407 339.316C299.197 339.316 298.215 340.242 298.215 341.385C298.215 342.528 299.197 343.455 300.407 343.455Z" fill="black"/>
<path d="M300.407 342.604C301.617 342.604 302.599 341.678 302.599 340.535C302.599 339.392 301.617 338.465 300.407 338.465C299.197 338.465 298.215 339.392 298.215 340.535C298.215 341.678 299.197 342.604 300.407 342.604Z" fill="#3F3D56"/>
<path opacity="0.1" d="M298.556 298.659C299.767 298.659 300.748 297.732 300.748 296.589C300.748 295.446 299.767 294.519 298.556 294.519C297.346 294.519 296.365 295.446 296.365 296.589C296.365 297.732 297.346 298.659 298.556 298.659Z" fill="black"/>
<path d="M298.556 297.815C299.767 297.815 300.748 296.889 300.748 295.746C300.748 294.603 299.767 293.676 298.556 293.676C297.346 293.676 296.365 294.603 296.365 295.746C296.365 296.889 297.346 297.815 298.556 297.815Z" fill="#3F3D56"/>
<path d="M349.079 349.825C349.079 349.825 350.572 351.941 349.079 352.929C347.585 353.918 349.225 356.31 349.225 356.31C349.225 356.31 345.499 358.372 347.139 360.227C348.778 362.082 347.739 370.46 347.739 370.46L343.258 377.466C343.258 377.466 343.526 381.981 343.543 388.083C343.543 397.603 342.95 410.987 339.671 417.089L340.125 467.151C340.125 467.151 324.434 472.563 311.301 470.915L309.352 390.582C309.352 390.582 312.193 345.026 313.241 336.288C313.853 331.751 314.103 327.177 313.987 322.605C313.987 322.605 313.541 308.93 312.039 302.583C312.039 302.583 310.416 275.088 310.253 267.476C310.18 263.835 310.383 253.211 310.611 243.108C310.862 232.062 311.146 221.644 311.146 221.644L308.183 199.507C308.183 199.507 311.146 199.223 312.039 200.35C312.439 200.703 312.874 201.019 313.338 201.293C318.452 204.558 336.521 214.6 336.521 214.6C336.521 214.6 346.522 218.356 348.916 223.737C351.311 229.118 352.975 232.936 354.136 234.469C355.297 236.002 355.93 243.207 355.93 243.207C355.93 243.207 359.371 256.468 362.058 258.714C364.745 260.96 366.71 275.249 366.71 275.249L342.966 292.879C342.966 292.879 340.88 322.207 340.434 323.341C339.987 324.476 349.079 349.825 349.079 349.825Z" fill="white"/>
<path d="M349.98 349.825C349.98 349.825 351.465 351.941 349.98 352.929C348.494 353.918 350.118 356.31 350.118 356.31C350.118 356.31 346.416 358.395 348.04 360.25C349.663 362.105 348.64 370.483 348.64 370.483L344.16 377.489C344.16 377.489 344.427 382.004 344.452 388.106C344.452 397.626 343.859 411.01 340.58 417.112L341.026 467.174C341.026 467.174 325.311 472.586 312.193 470.938L310.253 390.605C310.253 390.605 313.094 345.049 314.142 336.311C314.755 331.774 315.002 327.2 314.88 322.628C314.88 322.628 314.434 308.953 312.94 302.606C312.94 302.606 311.317 275.111 311.146 267.499C311.073 263.858 311.284 253.234 311.503 243.131C311.755 232.085 312.039 221.667 312.039 221.667L308.127 199.231C308.127 199.231 312.039 199.231 312.94 200.373C313.336 200.73 313.772 201.046 314.239 201.316C319.353 204.581 337.43 214.623 337.43 214.623C337.43 214.623 347.423 218.379 349.817 223.76C352.212 229.141 353.876 232.959 355.045 234.492C356.214 236.025 356.831 243.23 356.831 243.23C356.831 243.23 360.272 256.491 362.959 258.737C365.646 260.983 367.586 275.241 367.586 275.241L343.843 292.871C343.843 292.871 341.757 322.199 341.302 323.333C340.848 324.468 349.98 349.825 349.98 349.825Z" fill="white"/>
<path opacity="0.1" d="M321.545 228.175L323.688 234.078L312.404 244.809C312.656 233.771 312.94 223.346 312.94 223.346L309.028 200.91C309.028 200.91 312.94 200.91 313.841 202.052C314.236 202.408 314.672 202.721 315.14 202.987L324.735 229.126L321.545 228.175Z" fill="black"/>
<path d="M320.644 226.481L322.795 232.384L311.512 243.115C311.763 232.069 312.047 221.652 312.047 221.652L308.127 199.216C308.127 199.216 312.047 199.216 312.94 200.358C313.338 200.713 313.773 201.028 314.239 201.301L323.842 227.432L320.644 226.481Z" fill="white"/>
<path opacity="0.1" d="M320.644 168.079C320.65 170.841 320.19 173.587 319.28 176.212C319.127 176.234 318.97 176.228 318.819 176.192C318.669 176.157 318.527 176.093 318.403 176.005C318.192 169.106 314.596 162.629 310.172 157.117C308.93 155.453 307.424 153.98 305.708 152.748C303.972 151.517 301.813 150.94 299.652 151.131C297.217 151.445 295.066 153.009 292.606 153.208C289.359 153.461 286.453 151.338 283.231 151.23C281.921 151.242 280.628 151.518 279.44 152.038C278.251 152.559 277.194 153.313 276.339 154.25C274.646 156.142 273.388 158.345 272.646 160.72C271.369 164.322 270.674 168.084 270.584 171.881C270.543 174.027 270.324 176.718 268.214 177.5C268.372 175.921 268.182 174.329 267.656 172.823C267.129 171.318 266.277 169.932 265.153 168.753L265.105 168.707C265.105 168.493 265.105 168.293 265.105 168.079C265.042 164.597 265.713 161.138 267.081 157.904C268.448 154.67 270.484 151.725 273.069 149.242C275.655 146.758 278.738 144.786 282.139 143.439C285.54 142.093 289.19 141.399 292.878 141.399C296.566 141.399 300.217 142.093 303.618 143.439C307.019 144.786 310.102 146.758 312.687 149.242C315.272 151.725 317.308 154.67 318.675 157.904C320.043 161.138 320.715 164.597 320.652 168.079H320.644Z" fill="black"/>
<path d="M304.376 126.433C300.158 124.559 295.361 124.205 290.885 125.436C288.637 126.065 286.518 127.084 284.237 127.598C279.367 128.709 273.685 127.506 269.504 130.196C267.183 131.73 265.787 134.152 264.488 136.505L261.241 142.346C259.471 145.543 257.685 148.793 256.947 152.311C256.208 155.829 256.654 159.77 259.017 162.598C260.737 164.66 263.278 165.955 265.145 167.895C266.264 169.074 267.112 170.459 267.637 171.963C268.163 173.467 268.353 175.057 268.197 176.633C270.316 175.867 270.519 173.169 270.568 171.022C270.658 167.225 271.353 163.463 272.629 159.861C273.37 157.486 274.628 155.282 276.323 153.392C277.179 152.455 278.236 151.702 279.424 151.181C280.613 150.66 281.905 150.384 283.214 150.372C286.461 150.479 289.376 152.595 292.59 152.342C295.025 152.15 297.184 150.579 299.636 150.272C301.797 150.079 303.957 150.656 305.691 151.89C307.408 153.119 308.911 154.593 310.148 156.259C314.58 161.77 318.176 168.232 318.387 175.146C319.304 175.782 320.627 174.955 321.082 173.973C321.536 172.992 321.553 171.842 322.129 170.907C322.795 169.826 324.069 169.252 325.068 168.439C327.6 166.377 328.233 162.905 328.136 159.754C328.038 156.604 327.389 153.407 328.022 150.31C328.404 148.409 329.264 146.631 329.735 144.753C330.206 142.875 330.263 140.767 329.151 139.15C327.527 136.773 324.11 136.306 321.131 136.083C317.746 135.808 314.718 136.16 312.559 133.47C311.545 132.066 310.404 130.747 309.149 129.53C308.719 129.131 304.376 126.601 304.376 126.433Z" fill="#512E4E"/>
<path opacity="0.1" d="M216.149 288.08L207.666 273.271L204.979 296.121C204.979 296.121 206.473 306.27 206.173 307.826C205.872 309.382 212.293 323.333 212.293 323.333C212.293 323.333 233.504 359.008 242.165 360.848L271.428 341.102L263.668 331.796C263.668 331.796 260.981 330.807 260.307 331.796C260.307 331.796 245.899 308.386 244.405 306.692C242.912 304.998 243.204 301.617 243.204 301.617C243.204 301.617 240.964 299.364 241.71 297.248C242.457 295.132 237.384 287.797 237.384 287.797L242.011 283.711L216.149 288.08Z" fill="black"/>
<path d="M208.113 271.584L205.872 273.271L203.185 296.121C203.185 296.121 204.679 306.27 204.379 307.826C204.078 309.382 210.507 323.333 210.507 323.333C210.507 323.333 231.71 359.008 240.371 360.848L269.642 341.102L261.874 331.796C261.874 331.796 259.187 330.807 258.513 331.796C258.513 331.796 244.105 308.386 242.611 306.692C241.118 304.998 241.418 301.617 241.418 301.617C241.418 301.617 239.178 299.364 239.925 297.248C240.671 295.132 235.59 287.797 235.59 287.797L240.217 283.711L208.113 271.584Z" fill="white"/>
<path opacity="0.1" d="M347.139 361.101C348.762 362.963 347.739 371.326 347.739 371.326L343.258 378.333C343.258 378.333 343.526 382.855 343.543 388.949L336.01 391.172C335.329 391.373 334.607 391.417 333.905 391.301C333.202 391.185 332.539 390.911 331.971 390.504C331.403 390.097 330.947 389.567 330.64 388.959C330.332 388.351 330.184 387.683 330.206 387.01L331.505 347.449L349.079 353.796C347.585 354.777 349.225 357.184 349.225 357.184C349.225 357.184 345.499 359.238 347.139 361.101Z" fill="black"/>
<path d="M348.04 360.25C349.663 362.113 348.64 370.483 348.64 370.483L344.16 377.489C344.16 377.489 344.427 382.004 344.452 388.106L336.781 390.367C336.114 390.563 335.408 390.605 334.72 390.491C334.032 390.377 333.384 390.109 332.828 389.71C332.272 389.311 331.825 388.792 331.524 388.197C331.223 387.602 331.078 386.948 331.099 386.289L332.406 346.606L349.988 352.952C348.486 353.934 350.126 356.333 350.126 356.333C350.126 356.333 346.416 358.395 348.04 360.25Z" fill="white"/>
<path d="M353.86 341.393C353.86 341.393 352.667 348.591 349.679 349.012C346.692 349.434 345.353 360.656 342.374 360.258C339.395 359.859 341.367 349.825 341.473 347.878C341.578 345.931 338.226 337.867 340.734 336.035C343.242 334.203 351.181 336.035 351.181 336.035L353.86 341.393Z" fill="#CF6F80"/>
<path opacity="0.1" d="M360.216 285.965L365.849 275.233C365.849 275.233 368.09 283.412 368.09 287.781C368.09 292.151 371.223 292.58 371.223 292.58C371.223 292.58 374.656 296.413 372.846 299.203C371.036 301.993 370.306 308.938 370.306 308.938C370.306 308.938 370.898 322.191 368.211 324.023C365.524 325.855 364.964 330.232 364.964 330.232C364.964 330.232 360.029 338.549 360.183 340.527C360.337 342.505 353.316 355.896 353.316 355.896C353.316 355.896 356.75 339.254 336.74 332.064C336.74 332.064 336.586 326.415 338.08 324.867C339.573 323.318 341.903 322.613 340.442 314.787C338.981 306.96 340.02 297.608 340.02 295.73C340.02 293.852 344.5 282.14 344.5 282.14L360.216 285.965Z" fill="black"/>
<path d="M362.651 273.7L367.57 275.233C367.57 275.233 369.818 283.412 369.818 287.781C369.818 292.151 372.952 292.58 372.952 292.58C372.952 292.58 376.385 296.413 374.575 299.203C372.765 301.993 372.043 308.938 372.043 308.938C372.043 308.938 372.635 322.191 369.948 324.023C367.262 325.855 366.661 330.232 366.661 330.232C366.661 330.232 361.734 338.549 361.888 340.527C362.042 342.505 355.012 355.896 355.012 355.896C355.012 355.896 358.454 339.254 338.437 332.064C338.437 332.064 338.291 326.415 339.784 324.866C341.278 323.318 343.608 322.613 342.146 314.787C340.685 306.96 341.724 297.608 341.724 295.73C341.724 293.852 346.205 282.14 346.205 282.14L362.651 273.7Z" fill="white"/>
<path opacity="0.1" d="M254 551.854C254 551.854 261.841 547.201 266.988 550.581C272.134 553.962 254 551.854 254 551.854Z" fill="black"/>
<path opacity="0.1" d="M314.929 537.466C314.929 537.466 321.869 536.623 327.698 542.548C333.526 548.473 314.929 537.466 314.929 537.466Z" fill="black"/>
<g opacity="0.1">
<path opacity="0.1" d="M325.084 166.76C324.085 167.573 322.803 168.155 322.137 169.236C321.569 170.164 321.553 171.306 321.098 172.302C320.644 173.299 319.32 174.111 318.403 173.483C318.192 166.584 314.588 160.107 310.164 154.588C308.927 152.922 307.424 151.448 305.708 150.218C303.97 148.985 301.808 148.408 299.644 148.601C297.209 148.915 295.066 150.479 292.606 150.671C289.359 150.931 286.445 148.808 283.223 148.701C281.913 148.713 280.621 148.99 279.434 149.512C278.247 150.034 277.192 150.79 276.339 151.729C274.644 153.616 273.386 155.817 272.646 158.19C271.37 161.792 270.675 165.554 270.584 169.351C270.535 171.49 270.324 174.157 268.23 174.955C268.279 175.521 268.279 176.09 268.23 176.656C270.34 175.89 270.551 173.192 270.6 171.045C270.691 167.248 271.386 163.486 272.662 159.885C273.403 157.509 274.661 155.305 276.355 153.415C277.21 152.479 278.265 151.725 279.452 151.204C280.639 150.684 281.93 150.408 283.239 150.395C286.486 150.502 289.408 152.618 292.622 152.365C295.058 152.173 297.217 150.602 299.66 150.295C301.824 150.102 303.986 150.679 305.724 151.913C307.44 153.142 308.943 154.616 310.18 156.282C314.604 161.793 318.208 168.255 318.419 175.169C319.337 175.806 320.66 174.978 321.114 173.996C321.569 173.015 321.585 171.866 322.153 170.93C322.819 169.85 324.102 169.275 325.1 168.462C327.633 166.4 328.266 162.928 328.168 159.777C328.168 159.678 328.168 159.578 328.168 159.486C328.014 162.215 327.243 164.997 325.084 166.76Z" fill="black"/>
<path opacity="0.1" d="M265.161 166.216C263.294 164.277 260.746 162.981 259.033 160.927C257.591 159.108 256.767 156.919 256.671 154.649C256.415 157.486 257.254 160.314 259.033 162.613C260.746 164.675 263.294 165.971 265.161 167.91C266.954 169.807 268.03 172.212 268.222 174.748C268.346 173.204 268.139 171.653 267.613 170.187C267.087 168.721 266.253 167.37 265.161 166.216Z" fill="black"/>
<path opacity="0.1" d="M329.751 143.074C329.272 144.952 328.42 146.738 328.03 148.632C327.8 149.897 327.715 151.182 327.779 152.464C327.806 151.734 327.89 151.006 328.03 150.287C328.42 148.386 329.272 146.608 329.751 144.73C330.03 143.694 330.121 142.621 330.019 141.557C329.969 142.068 329.879 142.575 329.751 143.074Z" fill="black"/>
</g>
<path opacity="0.1" d="M107.742 583.021C151.425 583.021 186.837 577.65 186.837 571.025C186.837 564.4 151.425 559.029 107.742 559.029C64.0584 559.029 28.6461 564.4 28.6461 571.025C28.6461 577.65 64.0584 583.021 107.742 583.021Z" fill="#6C63FF"/>
<path d="M110.29 341.217H105.201V449.429H110.29V341.217Z" fill="#535461"/>
<path d="M142.273 449.099L141.956 453.975L141.502 460.873L141.315 463.74L140.869 470.639L140.674 473.506L140.219 480.405L135.089 558.645C134.866 562.012 133.293 565.171 130.69 567.481C128.087 569.791 124.65 571.077 121.078 571.079H94.4048C90.8338 571.077 87.3977 569.791 84.7962 567.481C82.1946 565.171 80.6234 562.011 80.4024 558.645L75.2966 480.351L74.842 473.452L74.6553 470.585L74.2007 463.687L74.014 460.82L73.5595 453.921L73.2348 449.046C73.1784 448.107 73.3256 447.168 73.6674 446.285C74.0092 445.403 74.5384 444.595 75.2225 443.913C75.9066 443.23 76.7311 442.687 77.6456 442.316C78.5601 441.945 79.5451 441.754 80.5404 441.756H135.097C136.089 441.764 137.068 441.964 137.974 442.343C138.881 442.722 139.695 443.273 140.368 443.961C141.04 444.649 141.556 445.46 141.884 446.344C142.211 447.228 142.344 448.165 142.273 449.099Z" fill="#3F3D56"/>
<path d="M141.956 453.974L141.502 460.85H73.9815L73.527 453.974H141.956Z" fill="#9D9CB5"/>
<path d="M141.315 463.717L140.869 470.601H74.6228L74.1683 463.717H141.315Z" fill="#9D9CB5"/>
<path d="M140.674 473.475L140.227 480.351H75.2641L74.8095 473.475H140.674Z" fill="#9D9CB5"/>
<path d="M65.7587 381.774C95.3951 402.026 107.766 433.7 107.766 433.7C107.766 433.7 72.0496 432.542 42.4051 412.29C12.7605 392.038 0.413986 360.373 0.413986 360.373C0.413986 360.373 36.1141 361.522 65.7587 381.774Z" fill="#6C63FF"/>
<path d="M0.389633 360.373C0.389633 360.373 37.4697 379.804 49.3616 395.894C61.2535 411.984 107.766 433.7 107.766 433.7" stroke="#535461" stroke-width="2" stroke-miterlimit="10"/>
<path d="M84.8913 340.979C101.02 351.994 107.766 369.234 107.766 369.234C107.766 369.234 88.3249 368.605 72.1876 357.59C56.0503 346.575 49.321 329.328 49.321 329.328C49.321 329.328 68.754 329.956 84.8913 340.979Z" fill="#6C63FF"/>
<path d="M49.321 329.328C49.321 329.328 69.5008 339.906 75.9703 348.66C82.4398 357.414 107.766 369.234 107.766 369.234" stroke="#535461" stroke-width="2" stroke-miterlimit="10"/>
<path d="M131.185 368.36C112.653 387.592 108.732 412.727 108.732 412.727C108.732 412.727 134.862 406.671 153.377 387.431C171.893 368.191 175.83 343.064 175.83 343.064C175.83 343.064 149.716 349.127 131.185 368.36Z" fill="#6C63FF"/>
<path d="M175.846 343.072C175.846 343.072 151.705 362.787 145.568 376.37C139.432 389.953 108.732 412.727 108.732 412.727" stroke="#535461" stroke-width="2" stroke-miterlimit="10"/>
<path d="M811.467 361.591C811.467 361.591 798.066 298.628 803.196 290.794C803.196 290.794 803.382 283.512 803.074 274.229C803.074 273.876 803.074 273.524 803.074 273.163C803.977 273.732 804.918 274.244 805.891 274.697C810.618 276.99 816.044 277.651 821.233 276.567L817.174 272.297C816.2 271.278 815.185 270.174 814.974 268.825C814.763 267.476 815.348 266.272 815.851 265.069C819.707 255.87 819.909 244.303 812.482 237.282C806.207 231.38 804.681 223.76 797.871 218.371C792.895 214.424 790.159 208.636 787.578 203.041C785.394 198.311 783.195 193.543 781.945 188.53C780.971 184.613 780.581 180.558 779.242 176.733C777.902 172.908 775.394 169.19 771.473 167.481C770.077 166.875 768.527 166.53 767.252 165.726C765.58 164.66 764.574 162.928 763.364 161.41C757.219 153.745 736.642 158.259 726.901 161.372C724.253 162.155 721.8 163.438 719.693 165.143L719.782 165.005C719.855 164.89 719.944 164.775 720.025 164.66C718.959 165.474 718.038 166.445 717.298 167.535C715.878 169.658 715.285 172.134 714.1 174.433C712.671 177.155 704.724 184.751 708.142 187.81C708.381 188.015 708.656 188.181 708.953 188.3C710.236 188.804 711.649 188.938 713.012 188.683L712.866 189.013C711.699 191.711 711.101 194.599 711.104 197.514C711.104 210.108 722.103 220.318 735.684 220.318C738.237 220.321 740.775 219.951 743.209 219.222C743.265 219.513 743.314 219.805 743.371 220.096C743.371 220.211 743.412 220.326 743.428 220.441L742.998 221.008C742.976 220.973 742.952 220.94 742.924 220.909L730.18 237.726C728.232 239.022 717.014 246.687 716.381 252.436C715.715 258.73 715.05 266.096 715.05 266.096L714.96 267.675C714.403 268.115 713.752 268.435 713.051 268.613C712.35 268.792 711.617 268.825 710.902 268.71C706.924 268.097 706.924 282.508 706.924 282.508C706.924 282.508 704.278 284.807 702.459 282.814C700.641 280.821 695.836 287.574 695.836 287.574L665.72 288.801L665.03 288.839L663.407 284.094C663.232 283.594 662.855 283.179 662.358 282.939C661.861 282.699 661.284 282.654 660.753 282.814C660.627 282.853 660.505 282.902 660.387 282.96L660.274 283.021L660.063 283.159L659.957 283.251C659.899 283.301 659.845 283.355 659.795 283.412L659.697 283.519L659.649 283.565C659.461 283.81 659.337 284.093 659.286 284.391C659.236 284.689 659.26 284.995 659.356 285.282L660.753 289.353C654.941 290.457 648.999 293.569 653.845 302.139L629.282 297.854L637.228 304.155L678.254 312.15C677.71 313.069 678.067 314.403 679.763 316.281C687.069 324.384 700.381 326.584 705.739 327.151C707.154 330.139 708.921 332.968 711.007 335.583L710.544 343.654C710.544 343.654 696.98 405.177 694.496 408.296C695.75 406.955 696.898 405.528 697.93 404.027C693.993 416.667 688.49 433.968 687.045 436.559C684.723 440.698 682.572 457.447 685.218 458.52C686.03 458.85 688.352 458.689 691.663 458.451V459.838L691.517 512.415C691.517 512.415 692.183 544.664 690.357 547.737C688.53 550.811 688.043 557.258 688.043 557.258C688.043 557.258 680.737 569.975 674.95 575.087C674.91 575.127 674.867 575.163 674.82 575.195L674.641 573.999C674.641 573.999 667.685 582.293 652.294 581.825C652.294 581.825 643.032 587.513 656.767 587.82C670.502 588.126 688.043 587.36 688.043 587.36C688.043 587.36 700.292 569.729 710.553 572.029V585.39H713.694V571.814C715.151 570.909 716.398 569.733 717.359 568.359C718.32 566.984 718.976 565.44 719.287 563.819C719.556 562.149 719.359 560.441 718.715 558.864C718.072 557.287 717.004 555.896 715.618 554.828C714.995 554.296 714.495 553.648 714.15 552.926C713.805 552.203 713.622 551.42 713.613 550.627L713.499 550.719C713.499 550.451 713.426 550.175 713.394 549.891C712.493 542.993 711.364 528.758 715.35 518.226C720.813 503.784 722.469 483.67 718.491 471.697C717.208 467.869 716.154 463.977 715.334 460.038C715.236 459.54 715.147 459.064 715.066 458.62C717.785 458.967 720.477 459.479 723.126 460.153C732.339 462.552 752.495 462.997 769.704 462.866C769.744 463.311 769.793 463.778 769.85 464.246C770.157 467.496 770.798 470.71 771.765 473.843C773.925 479.975 774.915 507.011 774.915 507.011C774.915 507.011 777.699 529.241 776.181 538.286C775.37 543.314 774.558 548.366 774.095 553.44V553.54C774.095 553.54 769.533 565.805 766.197 572.466C766.116 572.635 766.026 572.803 765.945 572.964C765.056 573.041 764.18 573.224 763.34 573.508C763.34 573.508 758.867 581.94 754.411 583.335C749.954 584.731 751.431 589.322 761.521 587.636C771.611 585.949 786.848 584.57 786.848 584.57L787.505 575.969L790.606 572.305L789.794 580.882L793.098 580.269L792.66 569.837L797.733 563.842C797.733 563.842 803.861 558.691 794.754 548.558V548.78C794.656 548.634 794.567 548.481 794.462 548.335V548.289C792.952 546.082 791.75 541.965 793.95 534.66C797.928 521.46 800.241 509.48 800.241 509.48C800.241 509.48 809.121 477.385 798.447 462.199H798.918C797.824 460.063 797.051 457.792 796.621 455.454C796.567 455.178 796.518 454.894 796.475 454.603C804.373 454.174 812.125 452.825 818.448 449.912C818.424 449.881 814.617 373.718 811.467 361.591ZM711.194 308.47V308.624L709.57 308.7L711.194 308.47ZM705.625 309.198C705.358 309.254 705.108 309.367 704.895 309.528C704.197 310.461 703.758 311.544 703.62 312.679L701.088 312.142C701.088 312.142 699.31 311.782 696.753 311.375L695.544 310.226C698.872 309.965 702.33 309.582 705.625 309.198Z" fill="url(#paint1_linear_2_15)"/>
<path d="M789.421 569.944L788.455 580.806L791.694 580.193L791.207 568.411L789.421 569.944Z" fill="#1D2366"/>
<path d="M715.528 518.371C711.624 528.873 712.728 543.046 713.605 549.93C713.929 552.475 714.23 554.023 714.23 554.023C714.23 554.023 708.393 566.579 707.906 567.054C707.419 567.529 690.73 577.149 690.73 577.149L679.065 583.581C679.065 583.581 667.23 578.683 672.904 576.996C674.064 576.557 675.108 575.885 675.964 575.026C681.647 569.929 688.782 557.258 688.782 557.258C688.782 557.258 689.269 550.827 691.055 547.768C692.84 544.71 692.191 512.569 692.191 512.569L692.329 460.176V453.346L714.53 453.499C714.67 455.818 714.99 458.124 715.488 460.398C716.285 464.324 717.317 468.204 718.581 472.019C722.493 483.969 720.87 503.983 715.528 518.371Z" fill="#FFB0B1"/>
<path opacity="0.1" d="M714.23 554.023C714.23 554.023 708.393 566.579 707.906 567.054C707.419 567.529 690.73 577.149 690.73 577.149L679.065 583.581C679.065 583.581 667.23 578.683 672.904 576.996C674.064 576.557 675.108 575.885 675.964 575.026L676.468 578.376L680.356 578.223L713.637 549.945C713.929 552.475 714.23 554.023 714.23 554.023Z" fill="black"/>
<path d="M713.824 550.658L680.356 579.127L676.468 579.28L675.656 573.915C675.656 573.915 668.854 582.178 653.739 581.718C653.739 581.718 644.664 587.383 658.114 587.689C671.565 587.996 688.741 587.229 688.741 587.229C688.741 587.229 700.739 569.599 710.78 571.899V585.213H713.864V571.776C715.299 570.864 716.523 569.688 717.463 568.318C718.403 566.948 719.04 565.413 719.335 563.804C719.603 562.147 719.414 560.453 718.787 558.885C718.16 557.317 717.116 555.928 715.756 554.851C715.148 554.313 714.664 553.664 714.331 552.943C713.999 552.222 713.826 551.444 713.824 550.658Z" fill="#1D2366"/>
<path d="M792.505 534.745C790.346 542.027 791.523 546.128 793 548.328V548.374C794.895 551.09 796.213 554.128 796.88 557.319L797.01 558.009L781.782 578.974L773.519 582.04C773.519 582.04 760.231 577.755 762.658 576.529C763.267 576.23 764.216 574.635 765.304 572.435C768.551 565.805 773.032 553.571 773.032 553.571V553.471C773.503 548.42 774.249 543.384 775.077 538.37C776.563 529.348 773.835 507.203 773.835 507.203C773.835 507.203 772.861 480.274 770.751 474.15C769.798 471.036 769.165 467.843 768.859 464.614C768.421 460.781 768.324 457.623 768.324 457.623C768.324 457.623 777.074 446.125 793.114 458.543C794.397 459.534 795.525 460.69 796.467 461.977C807.547 476.863 798.626 509.656 798.626 509.656C798.626 509.656 796.393 521.583 792.505 534.745Z" fill="#FFB0B1"/>
<path opacity="0.1" d="M797.035 558.009L781.807 578.974L773.543 582.04C773.543 582.04 760.255 577.755 762.682 576.529C763.291 576.23 764.241 574.635 765.328 572.435C770.954 572.389 773.868 577.449 773.868 577.449L780.995 576.375C780.995 576.375 790.395 558.929 792.505 557.863C794.616 556.798 792.83 549.899 792.83 549.899V548.144C792.887 548.205 792.936 548.274 793 548.335V548.381C794.895 551.098 796.213 554.136 796.881 557.327L797.035 558.009Z" fill="black"/>
<path d="M774.355 577.901C774.355 577.901 770.296 570.864 762.52 573.462C762.52 573.462 758.145 581.894 753.769 583.259C749.394 584.623 750.855 589.222 760.742 587.544C770.629 585.865 785.532 584.478 785.532 584.478L786.182 575.9L796.231 563.812C796.231 563.812 802.222 558.684 793.309 548.588V550.344C793.309 550.344 795.095 557.242 792.984 558.308C790.874 559.373 781.506 576.828 781.506 576.828L774.355 577.901Z" fill="#1D2366"/>
<path opacity="0.1" d="M714.554 453.484C714.694 455.803 715.015 458.108 715.512 460.383C706.372 459.118 697.889 459.747 692.329 460.16V453.331L714.554 453.484Z" fill="black"/>
<path opacity="0.1" d="M797.368 463.886C797.368 463.886 784.38 464.484 768.892 464.606C768.454 460.774 768.356 457.616 768.356 457.616C768.356 457.616 777.107 446.117 793.147 458.535C794.429 459.526 795.558 460.682 796.499 461.969C796.751 462.623 797.041 463.263 797.368 463.886Z" fill="black"/>
<path d="M797.368 462.506C797.368 462.506 740.481 465.105 723.142 460.513C705.804 455.922 688.619 459.9 686.03 458.834C683.441 457.769 685.543 441.081 687.816 436.95C690.089 432.818 702.557 391.034 702.557 391.034L714.554 331.965L727.193 328.676L728.086 328.439L750.108 322.705L766.246 318.497C766.246 318.497 798.333 436.796 795.582 445.52C794.582 448.86 794.421 452.374 795.111 455.784C795.531 458.112 796.291 460.374 797.368 462.506Z" fill="#1D2366"/>
<path d="M672.734 291.568C672.734 291.568 661.369 303.066 669.974 309.474C678.578 315.883 684.236 310.088 684.236 310.088L672.734 291.568Z" fill="#C7DAF5"/>
<path opacity="0.1" d="M672.734 291.568C672.734 291.568 661.369 303.066 669.974 309.474C678.578 315.883 684.236 310.088 684.236 310.088L672.734 291.568Z" fill="black"/>
<path d="M764.549 215.972C764.549 215.972 763.218 217.168 761.213 218.931C758.356 221.453 754.126 225.14 750.376 228.229C745.181 232.499 740.895 235.634 742.429 232.959C743.963 230.283 743.671 225.623 742.908 221.261C742.851 220.97 742.803 220.679 742.746 220.395C742.114 217.192 741.276 214.028 740.238 210.921C740.238 210.921 748.631 200.68 753.274 196.64C755.003 195.107 756.213 194.478 756.286 195.544C756.367 196.977 757.503 200.143 758.916 203.501C758.956 203.608 758.997 203.707 759.046 203.815C759.987 206.114 761.051 208.475 761.984 210.514C763.413 213.642 764.549 215.972 764.549 215.972Z" fill="#FFB0B1"/>
<path opacity="0.1" d="M759.046 203.815C758.257 207.821 756.343 211.554 753.504 214.623C750.666 217.692 747.006 219.984 742.908 221.261C742.263 217.762 741.371 214.308 740.238 210.921C740.238 210.921 756.042 191.642 756.286 195.544C756.342 197.023 757.576 200.304 759.046 203.815Z" fill="black"/>
<path opacity="0.1" d="M741.333 226.412L743.379 223.691C743.379 223.691 744.735 231.495 749.719 228.053C754.703 224.611 754.946 253.954 754.946 253.954L749.597 329.481L710.942 327.296L712.038 290.802L716.413 272.405L727.234 245.66L733.671 236.822L741.333 226.412Z" fill="black"/>
<path d="M754.946 254.422L750.076 322.713L749.564 329.949L728.013 328.73L727.201 328.684L710.966 327.764L712.062 291.261L716.438 272.865L727.258 246.12L733.695 237.282L741.358 226.834L743.403 224.12C743.403 224.12 744.759 231.924 749.743 228.482L749.849 228.413C754.719 225.5 754.946 254.422 754.946 254.422Z" fill="#1D2366"/>
<path d="M716.981 266.472C716.981 266.472 715.041 270.304 711.145 269.683C707.249 269.063 707.257 283.481 707.257 283.481C707.257 283.481 704.667 285.781 702.882 283.788C701.096 281.795 696.388 288.533 696.388 288.533L666.889 289.759C666.889 289.759 680.015 295.424 677.442 312.564C677.442 312.564 722.006 309.957 723.467 305.979C724.928 302.001 716.981 266.472 716.981 266.472Z" fill="white"/>
<path opacity="0.03" d="M716.981 266.472C716.981 266.472 715.041 270.304 711.145 269.683C707.249 269.063 707.257 283.481 707.257 283.481C707.257 283.481 704.667 285.781 702.882 283.788C701.096 281.795 696.388 288.533 696.388 288.533L666.889 289.759C666.889 289.759 680.015 295.424 677.442 312.564C677.442 312.564 722.006 309.957 723.467 305.979C724.928 302.001 716.981 266.472 716.981 266.472Z" fill="black"/>
<path d="M631.254 298.766L639.03 305.036L703.044 317.738L695.105 310.088L631.254 298.766Z" fill="white"/>
<path d="M741.455 228.827C740.392 230.36 737.348 238.209 734.807 245.062C732.688 250.773 730.919 255.794 730.919 255.794C730.919 255.794 726.787 281.197 724.677 285.788C722.566 290.38 723.711 308.286 723.711 308.286L715.845 352.508C715.845 352.508 712.281 375.312 706.778 388.934C701.347 402.34 695.3 408.626 695.113 408.825C697.548 405.713 710.82 344.436 710.82 344.436L715.204 267.154C715.204 267.154 715.845 259.81 716.494 253.532C717.144 247.255 730.294 238.685 730.294 238.685L742.973 221.66C744.248 223.27 743.395 226.075 741.455 228.827Z" fill="white"/>
<path d="M708.393 328.147C708.393 328.147 689.723 327.381 680.681 317.124C671.638 306.868 701.583 313.031 701.583 313.031L709.367 314.718L708.393 328.147Z" fill="#FFB0B1"/>
<path opacity="0.1" d="M795.582 445.527C794.582 448.868 794.421 452.382 795.111 455.791C774.745 457.156 752.958 451.958 752.958 451.958C748.899 455.485 738.208 460.682 738.208 460.682L732.38 392.46C728.654 383.261 727.193 335.069 727.193 335.069C727.193 335.069 727.526 332.547 728.005 328.768C728.005 328.676 728.005 328.577 728.045 328.485C729.498 317.929 732.38 298.114 733.792 295.439C735.741 291.76 727.802 281.971 727.802 281.971L731.414 252.881L731.852 249.37C739.467 246.158 745.303 235.902 745.303 235.902L749.784 228.49C754.654 225.538 754.906 254.46 754.906 254.46L750.035 322.751L766.173 318.543C766.173 318.543 798.333 436.804 795.582 445.527Z" fill="black"/>
<path d="M816.484 450.241C794.283 460.651 753.932 451.008 753.932 451.008C749.873 454.534 739.182 459.731 739.182 459.731L733.346 391.509C729.628 382.311 728.167 334.119 728.167 334.119C728.167 334.119 732.859 298.16 734.807 294.489C735.375 293.415 735.099 291.821 734.426 290.104C731.113 281.931 729.895 273.135 730.87 264.433L732.429 251.93L732.859 248.427C740.481 245.208 746.318 234.952 746.318 234.952L750.376 228.237L757.844 215.865L761.383 210.008L761.984 210.522L766.57 214.447C766.57 214.447 768.518 215.98 771.441 218.279C777.797 223.339 788.779 232.246 794.445 237.696C799.429 242.494 801.004 261.16 801.459 275.21C801.759 284.462 801.58 291.714 801.58 291.714C796.556 299.525 809.698 362.235 809.698 362.235C812.758 374.354 816.484 450.241 816.484 450.241Z" fill="white"/>
<path opacity="0.03" d="M773.868 234.798C773.868 234.798 758.632 262.187 760.401 272.596C762.171 283.006 767.204 294.788 764.776 297.539C763.943 298.582 762.865 299.428 761.627 300.012C760.389 300.596 759.025 300.901 757.641 300.905C755.206 301.058 748.712 305.343 748.712 305.803C748.712 306.263 742.713 306.263 737.348 308.409C731.982 310.555 724.06 311.774 724.06 311.774C724.06 311.774 708.637 311.314 707.2 312.694C705.763 314.074 704.286 322.329 707.362 328.914C710.439 335.498 713.856 340.412 716.438 341.309C719.019 342.206 735.4 337.024 748.688 335.797C761.976 334.571 776.4 324.629 776.4 324.629C776.4 324.629 792.286 319.263 795.07 310.241C797.855 301.219 791.669 251.631 791.669 251.631C791.669 251.631 786.994 228.52 773.868 234.798Z" fill="black"/>
<path opacity="0.03" d="M771.92 232.499C771.92 232.499 756.683 259.895 758.469 270.297C760.255 280.699 765.272 292.488 762.836 295.247C762.005 296.291 760.929 297.138 759.692 297.722C758.456 298.306 757.092 298.611 755.709 298.613C753.274 298.766 746.78 303.051 746.78 303.511C746.78 303.971 740.781 303.971 735.416 306.109C730.05 308.248 722.128 309.474 722.128 309.474C722.128 309.474 706.705 309.014 705.276 310.394C703.848 311.774 702.354 320.037 705.439 326.614C708.523 333.191 711.932 338.112 714.514 339.009C717.095 339.906 733.476 334.724 746.764 333.505C760.052 332.287 774.477 322.329 774.477 322.329C774.477 322.329 790.354 316.963 793.106 307.949C795.858 298.935 789.705 249.332 789.705 249.332C789.705 249.332 785.045 226.228 771.92 232.499Z" fill="black"/>
<path d="M773.389 233.419C773.389 233.419 758.153 260.815 759.938 271.216C761.724 281.618 766.741 293.408 764.314 296.16C763.483 297.206 762.406 298.055 761.167 298.641C759.929 299.226 758.563 299.531 757.179 299.532C754.743 299.686 748.249 303.971 748.249 304.423C748.249 304.875 742.259 304.883 736.885 307.029C731.511 309.175 723.597 310.394 723.597 310.394C723.597 310.394 708.174 309.934 706.737 311.314C705.301 312.694 703.823 320.957 706.9 327.534C709.976 334.111 713.394 339.032 715.975 339.929C718.556 340.826 734.937 335.644 748.225 334.418C761.513 333.191 775.938 323.249 775.938 323.249C775.938 323.249 791.823 317.883 794.608 308.861C797.392 299.839 791.247 250.252 791.247 250.252C791.247 250.252 786.507 227.179 773.389 233.419Z" fill="white"/>
<path opacity="0.1" d="M773.056 306.899C773.056 306.899 760.88 304.599 765.117 308.432C769.355 312.265 769.33 315.622 774.517 315.469C779.704 315.315 773.056 306.899 773.056 306.899Z" fill="black"/>
<path opacity="0.1" d="M793.634 389.363C793.634 389.363 788.13 392.881 798.658 400.991C809.186 409.101 793.634 389.363 793.634 389.363Z" fill="black"/>
<path opacity="0.1" d="M783.13 418.284C783.13 418.744 781.182 435.148 788.471 439.249C795.76 443.35 783.13 418.284 783.13 418.284Z" fill="black"/>
<path d="M667.393 289.721C661.516 289.912 648.82 291.606 655.403 303.204C661.223 313.468 671.005 306.608 676.508 301.403C675.166 296.55 671.903 292.369 667.393 289.721Z" fill="#FFB0B1"/>
<path d="M676.581 301.311L676.825 301.073L676.581 301.311Z" fill="#FFB0B1"/>
<path opacity="0.1" d="M771.441 218.747C765.207 222.771 759.979 226.167 758.956 226.872C756.164 228.827 750.839 240.302 747.405 246.158C744.67 250.873 735.781 252.084 732.429 252.383L732.859 248.88C740.481 245.66 746.318 235.404 746.318 235.404L761.383 210.461L766.57 214.914C766.57 214.914 768.519 216.447 771.441 218.747Z" fill="black"/>
<path d="M771.441 218.287C765.207 222.311 759.979 225.707 758.956 226.42C756.164 228.367 750.839 239.842 747.405 245.698C744.67 250.413 735.781 251.624 732.429 251.923L732.859 248.42C740.481 245.2 746.318 234.944 746.318 234.944L761.383 210.001L766.57 214.439C766.57 214.439 768.519 215.957 771.441 218.287Z" fill="#DCE7FF"/>
<path d="M759.443 198.756C759.447 203.357 757.969 207.851 755.206 211.641C751.943 216.123 747.087 219.351 741.519 220.741C735.951 222.13 730.039 221.589 724.858 219.215C719.676 216.841 715.567 212.791 713.277 207.801C710.987 202.811 710.666 197.211 712.374 192.017C714.082 186.823 717.705 182.38 722.586 179.492C727.467 176.605 733.282 175.466 738.976 176.281C744.67 177.096 749.866 179.812 753.622 183.935C757.377 188.059 759.442 193.317 759.443 198.756Z" fill="#FFB0B1"/>
<path opacity="0.1" d="M801.459 275.218C798.162 273.303 795.478 270.58 793.69 267.338C792.335 264.808 791.434 261.888 789.12 260.094C787.034 258.484 784.25 258.093 781.652 257.373C773.113 254.989 765.953 247.63 765.686 239.229C765.556 235.274 766.863 231.326 766.27 227.409C765.933 225.192 765 223.094 763.559 221.315C762.843 220.464 762.059 219.667 761.213 218.931C760.076 217.919 758.883 216.938 757.844 215.865C757.19 215.2 756.618 214.467 756.14 213.68C755.753 213.036 755.441 212.355 755.206 211.649C753.583 206.958 755.06 201.393 753.274 196.648L753.177 196.387C752.503 194.701 751.131 193.014 749.224 192.884C747.316 192.754 745.684 194.248 743.866 194.915C740.059 196.31 735.952 193.934 732.778 191.512C729.604 189.09 726.024 186.322 721.99 186.859C719.319 187.219 717.209 188.936 714.749 189.825C714.194 190.028 713.621 190.185 713.036 190.293C715.118 185.391 718.942 181.327 723.852 178.798C728.762 176.27 734.452 175.435 739.943 176.437C745.434 177.439 750.384 180.216 753.943 184.29C757.501 188.365 759.446 193.482 759.443 198.763C759.446 200.358 759.269 201.949 758.916 203.508C758.956 203.615 758.997 203.715 759.046 203.822C759.987 206.122 761.051 208.483 761.984 210.522L766.57 214.447C766.57 214.447 768.518 215.98 771.441 218.279C777.797 223.339 788.779 232.246 794.445 237.696C799.429 242.51 800.988 261.167 801.459 275.218Z" fill="black"/>
<path d="M714.465 175.821C715.626 173.59 716.202 171.091 717.59 168.976C719.628 165.91 723.183 163.947 726.836 162.759C736.374 159.655 756.529 155.147 762.552 162.759C763.737 164.292 764.72 165.994 766.359 167.052C767.609 167.857 769.119 168.201 770.491 168.807C774.331 170.509 776.782 174.219 778.089 178.005C779.396 181.792 779.785 185.855 780.743 189.756C781.969 194.762 784.12 199.507 786.263 204.221C788.788 209.786 791.466 215.558 796.337 219.491C802.985 224.856 804.454 232.453 810.623 238.34C817.929 245.33 817.693 256.867 813.927 266.027C813.432 267.23 812.872 268.488 813.067 269.768C813.261 271.048 814.268 272.213 815.218 273.232L819.211 277.487C809.763 279.641 799.072 274.98 794.673 266.801C793.317 264.272 792.416 261.359 790.094 259.557C788.016 257.948 785.224 257.564 782.635 256.844C774.095 254.452 766.936 247.086 766.668 238.685C766.538 234.737 767.845 230.789 767.252 226.88C766.923 224.648 765.986 222.535 764.533 220.748C762.301 217.996 758.932 216.148 757.114 213.082C754.037 207.954 756.375 201.293 754.159 195.789C753.477 194.103 752.113 192.416 750.206 192.286C748.298 192.156 746.667 193.651 744.84 194.317C741.041 195.712 736.934 193.344 733.76 190.914C730.586 188.484 727.006 185.725 722.964 186.269C720.293 186.621 718.191 188.338 715.731 189.235C713.913 189.894 710.228 190.485 708.637 189.036C705.276 186.115 713.061 178.55 714.465 175.821Z" fill="#591D4B"/>
<path opacity="0.1" d="M796.929 264.272C795.566 261.742 794.673 258.829 792.351 257.036C790.273 255.426 787.481 255.035 784.883 254.314C776.352 251.93 769.192 244.564 768.916 236.163C768.786 232.215 770.093 228.26 769.509 224.35C769.169 222.133 768.233 220.035 766.79 218.256C764.549 215.504 761.18 213.657 759.37 210.591C756.294 205.471 758.632 198.809 756.407 193.298C755.734 191.619 754.362 189.933 752.462 189.795C750.563 189.657 748.915 191.167 747.097 191.834C743.298 193.229 739.182 190.853 736.017 188.43C732.851 186.008 729.255 183.241 725.221 183.778C722.55 184.138 720.439 185.855 717.988 186.744C716.17 187.403 712.476 188.001 710.885 186.552C707.541 183.486 715.326 175.936 716.722 173.222C717.883 170.984 718.459 168.493 719.855 166.377C719.928 166.262 720.009 166.147 720.09 166.032C719.046 166.849 718.145 167.817 717.42 168.899C716.032 171.015 715.455 173.498 714.295 175.744C712.89 178.458 705.106 186.031 708.458 189.074C710.082 190.531 713.735 189.933 715.553 189.274C717.988 188.377 720.115 186.66 722.785 186.307C726.844 185.763 730.416 188.53 733.581 190.952C736.747 193.375 740.887 195.751 744.67 194.356C746.488 193.689 748.079 192.186 750.027 192.324C751.975 192.462 753.274 194.141 753.98 195.827C756.196 201.331 753.859 207.992 756.935 213.121C758.753 216.133 762.122 218.019 764.354 220.786C765.807 222.574 766.744 224.687 767.074 226.918C767.666 230.828 766.359 234.775 766.489 238.723C766.757 247.155 773.917 254.491 782.456 256.882C785.029 257.603 787.838 257.986 789.916 259.596C792.246 261.397 793.163 264.31 794.494 266.84C798.894 275.019 809.584 279.679 819.033 277.525L817.15 275.517C808.959 275.632 800.671 271.232 796.929 264.272Z" fill="black"/>
<path opacity="0.1" d="M740.968 229.287C739.905 230.82 736.861 238.669 734.32 245.522C731.942 244.648 729.782 239.076 729.782 239.076L742.462 222.043C743.761 223.729 742.908 226.527 740.968 229.287Z" fill="black"/>
<path d="M741.455 228.827C740.392 230.36 737.348 238.209 734.807 245.062C732.429 244.196 730.27 238.616 730.27 238.616L742.949 221.591C744.248 223.27 743.395 226.075 741.455 228.827Z" fill="#DCE7FF"/>
<path d="M667.733 307.136L660.704 286.202C660.621 285.957 660.589 285.699 660.612 285.443C660.635 285.186 660.711 284.936 660.836 284.708C660.961 284.479 661.133 284.276 661.342 284.11C661.55 283.945 661.791 283.819 662.051 283.742C662.574 283.587 663.141 283.635 663.627 283.873C664.114 284.111 664.481 284.521 664.649 285.014L671.679 305.925L670.98 310.302L667.733 307.136Z" fill="#BE8B87"/>
<path opacity="0.1" d="M661.369 284.363C661.894 284.206 662.462 284.252 662.951 284.491C663.439 284.729 663.807 285.141 663.975 285.635L671.005 306.546L670.477 309.827L670.988 310.333L671.687 305.956L664.616 285.045C664.449 284.552 664.081 284.142 663.595 283.904C663.108 283.665 662.542 283.618 662.019 283.772C661.579 283.907 661.199 284.177 660.939 284.539C661.077 284.469 661.221 284.41 661.369 284.363Z" fill="white"/>
<path d="M667.734 307.136L671.679 305.956L671.102 309.543L670.98 310.333L669.828 309.198L667.734 307.136Z" fill="#EFC8C4"/>
<path d="M669.828 309.198C669.896 309.117 669.982 309.049 670.079 308.999C670.136 308.965 670.203 308.947 670.27 308.947C670.338 308.947 670.404 308.965 670.461 308.999C670.516 309.062 670.563 309.132 670.599 309.206C670.653 309.291 670.726 309.363 670.813 309.417C670.9 309.472 670.999 309.507 671.102 309.52L670.98 310.287L669.828 309.198Z" fill="#727A9C"/>
<path d="M660.663 293.638C660.663 293.638 674.763 293.561 671.443 299.226C668.123 304.89 662.936 305.573 662.936 305.573L660.663 293.638Z" fill="#FFB0B1"/>
<path d="M572.971 39.4154H572.363C548.141 39.4154 526.719 51.519 514.397 69.3794C502.075 51.519 480.653 39.4154 456.431 39.4154H455.822C437.644 39.579 420.269 46.5105 407.472 58.7036C394.675 70.8967 387.492 87.3661 387.482 104.533C387.482 125.85 397.369 156.098 416.648 180.987C453.379 228.413 514.397 269.906 514.397 269.906C514.397 269.906 575.415 228.421 612.138 180.987C631.425 156.098 641.303 125.85 641.303 104.533C641.294 87.3674 634.111 70.8992 621.316 58.7063C608.521 46.5134 591.148 39.581 572.971 39.4154ZM564.262 184.636C561.503 184.626 558.812 183.829 556.542 182.349C554.272 180.868 552.529 178.775 551.542 176.342H537.06C536.107 176.336 535.179 176.05 534.406 175.522C533.633 174.994 533.054 174.252 532.75 173.399L528.302 160.743L514.226 207.188C513.952 208.082 513.378 208.868 512.591 209.427C511.803 209.987 510.845 210.291 509.859 210.292H509.575C508.547 210.245 507.566 209.866 506.798 209.219C506.03 208.572 505.52 207.695 505.354 206.735L490.848 124.348L480.247 173.1C480.004 174.026 479.439 174.848 478.643 175.436C477.847 176.024 476.866 176.343 475.855 176.342H455.457C454.845 176.367 454.235 176.274 453.662 176.07C453.089 175.866 452.567 175.554 452.125 175.154C451.683 174.754 451.331 174.274 451.091 173.743C450.851 173.211 450.727 172.639 450.727 172.061C450.727 171.483 450.851 170.911 451.091 170.379C451.331 169.848 451.683 169.368 452.125 168.968C452.567 168.568 453.089 168.256 453.662 168.052C454.235 167.848 454.845 167.755 455.457 167.78H472.284L487.301 102.233C487.547 101.264 488.143 100.406 488.985 99.8055C489.828 99.205 490.865 98.8994 491.919 98.9411C492.974 98.9827 493.98 99.369 494.766 100.034C495.553 100.699 496.07 101.601 496.23 102.586L511.044 186.629L523.659 145.075C523.921 144.2 524.477 143.428 525.242 142.876C526.007 142.323 526.941 142.019 527.904 142.009H527.993C528.947 142.009 529.877 142.294 530.649 142.822C531.422 143.351 531.998 144.096 532.295 144.952L540.34 167.803H551.363C552.147 165.554 553.573 163.554 555.485 162.023C557.396 160.491 559.719 159.488 562.196 159.125C564.673 158.761 567.208 159.051 569.522 159.962C571.836 160.873 573.838 162.37 575.307 164.288C576.777 166.206 577.657 168.47 577.85 170.83C578.043 173.19 577.542 175.555 576.402 177.663C575.262 179.771 573.527 181.541 571.389 182.777C569.251 184.013 566.793 184.667 564.286 184.667L564.262 184.636Z" fill="#6C63FF"/>
</g>
<defs>
<linearGradient id="paint0_linear_2_15" x1="289.246" y1="593.967" x2="289.246" y2="122.286" gradientUnits="userSpaceOnUse">
<stop stop-color="#808080" stop-opacity="0.25"/>
<stop offset="0.54" stop-color="#808080" stop-opacity="0.12"/>
<stop offset="1" stop-color="#808080" stop-opacity="0.1"/>
</linearGradient>
<linearGradient id="paint1_linear_2_15" x1="181192" y1="355890" x2="181192" y2="113772" gradientUnits="userSpaceOnUse">
<stop stop-color="#808080" stop-opacity="0.25"/>
<stop offset="0.54" stop-color="#808080" stop-opacity="0.12"/>
<stop offset="1" stop-color="#808080" stop-opacity="0.1"/>
</linearGradient>
<clipPath id="clip0_2_15">
<rect width="897" height="600" fill="white"/>
</clipPath>
</defs>
</svg>
