<svg width="380" height="446" viewBox="0 0 380 446" fill="none" xmlns="http://www.w3.org/2000/svg">
<path fill-rule="evenodd" clip-rule="evenodd" d="M134.25 22.3H111.95V44.6H167.7V66.9H111.95V90.1255C143.594 95.4328 167.7 122.951 167.7 156.1V178.4H33.9V156.1C33.902 140.29 39.5016 124.99 49.7062 112.914C59.9108 100.838 74.0615 92.7649 89.65 90.1255V66.9H65.4545C62.8214 74.3387 57.6441 80.6075 50.8372 84.5991C44.0302 88.5907 36.0316 90.0482 28.2543 88.7141C20.4769 87.3801 13.4212 83.3404 8.33353 77.3086C3.24587 71.2767 0.453612 63.641 0.449988 55.75C0.43822 47.8505 3.22256 40.2017 8.30987 34.1583C13.3972 28.115 20.4591 24.0671 28.245 22.7316C36.0308 21.3962 44.038 22.8593 50.8485 26.8618C57.6589 30.8644 62.8331 37.1481 65.4545 44.6H89.65V22.3H67.35V0H134.25V22.3ZM33.9 200.7V434.85C33.9 437.807 35.0747 440.643 37.1657 442.734C39.2568 444.825 42.0928 446 45.05 446H156.55C159.507 446 162.343 444.825 164.434 442.734C166.525 440.643 167.7 437.807 167.7 434.85V200.7H33.9ZM33.9 44.6C30.9428 44.6 28.1068 45.7747 26.0157 47.8658C23.9247 49.9568 22.75 52.7928 22.75 55.75C22.75 58.7072 23.9247 61.5432 26.0157 63.6342C28.1068 65.7253 30.9428 66.9 33.9 66.9C36.8571 66.9 39.6932 65.7253 41.7842 63.6342C43.8752 61.5432 45.05 58.7072 45.05 55.75C45.05 52.7928 43.8752 49.9568 41.7842 47.8658C39.6932 45.7747 36.8571 44.6 33.9 44.6ZM212.3 189.55C212.3 177.721 216.999 166.377 225.363 158.013C233.727 149.649 245.071 144.95 256.9 144.95C268.729 144.95 280.073 149.649 288.437 158.013C296.801 166.377 301.5 177.721 301.5 189.55V256.45C301.5 268.279 296.801 279.623 288.437 287.987C280.073 296.351 268.729 301.05 256.9 301.05C245.071 301.05 233.727 296.351 225.363 287.987C216.999 279.623 212.3 268.279 212.3 256.45V189.55ZM256.9 167.25C250.986 167.25 245.314 169.599 241.131 173.782C236.949 177.964 234.6 183.636 234.6 189.55V256.45C234.6 262.364 236.949 268.036 241.131 272.218C245.314 276.401 250.986 278.75 256.9 278.75C262.814 278.75 268.486 276.401 272.668 272.218C276.85 268.036 279.2 262.364 279.2 256.45V189.55C279.2 183.636 276.85 177.964 272.668 173.782C268.486 169.599 262.814 167.25 256.9 167.25ZM312.65 245.3H346.1C349.057 245.3 351.893 246.475 353.984 248.566C356.075 250.657 357.25 253.493 357.25 256.45C357.25 259.407 356.075 262.243 353.984 264.334C351.893 266.425 349.057 267.6 346.1 267.6C337.228 267.6 328.72 271.124 322.447 277.397C316.174 283.67 312.65 292.178 312.65 301.05V323.35C312.65 326.307 313.825 329.143 315.916 331.234C318.007 333.325 320.843 334.5 323.8 334.5H379.55V312.2H334.95V301.05C334.95 298.093 336.125 295.257 338.216 293.166C340.307 291.075 343.143 289.9 346.1 289.9C354.971 289.9 363.48 286.376 369.753 280.103C376.026 273.83 379.55 265.321 379.55 256.45C379.55 247.579 376.026 239.07 369.753 232.797C363.48 226.524 354.971 223 346.1 223H312.65V245.3Z" fill="#6C63FF"/>
</svg>
