<svg width="222" height="223" viewBox="0 0 222 223" fill="none" xmlns="http://www.w3.org/2000/svg">
<path fill-rule="evenodd" clip-rule="evenodd" d="M111 51.375C111 69.2599 96.5099 83.75 78.625 83.75C60.7401 83.75 46.25 69.2599 46.25 51.375C46.25 33.4901 60.7401 19 78.625 19C96.5099 19 111 33.4901 111 51.375ZM18.5 117.975C18.5 98.291 58.5571 88.375 78.625 88.375C91.094 88.375 111.277 92.2045 124.782 99.8219C116.44 104.184 109.237 110.441 103.753 118.092C98.2682 125.743 94.6548 134.574 93.203 143.875H18.5V117.975ZM138.75 106.875C138.75 105.648 139.237 104.472 140.105 103.605C140.972 102.737 142.148 102.25 143.375 102.25H161.875C163.102 102.25 164.278 102.737 165.145 103.605C166.013 104.472 166.5 105.648 166.5 106.875C166.5 108.102 166.013 109.278 165.145 110.145C164.278 111.013 163.102 111.5 161.875 111.5H157.25V121.074C162.607 121.842 167.685 123.948 172.013 127.197L178.46 120.75L177.105 119.395C176.263 118.523 175.796 117.354 175.807 116.142C175.818 114.929 176.304 113.769 177.161 112.911C178.019 112.054 179.179 111.568 180.392 111.557C181.604 111.546 182.773 112.013 183.645 112.855L192.895 122.105C193.737 122.977 194.204 124.146 194.193 125.358C194.182 126.571 193.696 127.731 192.839 128.589C191.981 129.446 190.821 129.932 189.608 129.943C188.396 129.954 187.227 129.487 186.355 128.645L185 127.29L178.553 133.737C181.802 138.065 183.908 143.143 184.676 148.5H194.25V143.875C194.25 142.648 194.737 141.472 195.605 140.605C196.472 139.737 197.648 139.25 198.875 139.25C200.102 139.25 201.278 139.737 202.145 140.605C203.013 141.472 203.5 142.648 203.5 143.875V162.375C203.5 163.602 203.013 164.778 202.145 165.645C201.278 166.513 200.102 167 198.875 167C197.648 167 196.472 166.513 195.605 165.645C194.737 164.778 194.25 163.602 194.25 162.375V157.75H184.676C184.068 161.993 182.618 166.072 180.412 169.747L189.625 178.96L190.98 177.605C191.852 176.763 193.021 176.296 194.233 176.307C195.446 176.318 196.606 176.804 197.464 177.661C198.321 178.519 198.807 179.679 198.818 180.892C198.829 182.104 198.362 183.273 197.52 184.145L188.27 193.395C187.398 194.237 186.229 194.704 185.017 194.693C183.804 194.682 182.644 194.196 181.786 193.339C180.929 192.481 180.443 191.321 180.432 190.108C180.421 188.896 180.888 187.727 181.73 186.855L183.085 185.5L174.538 176.958C169.739 181.382 163.711 184.246 157.25 185.172V194.75H161.875C163.102 194.75 164.278 195.237 165.145 196.105C166.013 196.972 166.5 198.148 166.5 199.375C166.5 200.602 166.013 201.778 165.145 202.645C164.278 203.513 163.102 204 161.875 204H143.375C142.148 204 140.972 203.513 140.105 202.645C139.237 201.778 138.75 200.602 138.75 199.375C138.75 198.148 139.237 196.972 140.105 196.105C140.972 195.237 142.148 194.75 143.375 194.75H148V185.176C142.643 184.408 137.565 182.302 133.237 179.053L126.79 185.5L128.145 186.855C128.987 187.727 129.454 188.896 129.443 190.108C129.432 191.321 128.946 192.481 128.089 193.339C127.231 194.196 126.071 194.682 124.858 194.693C123.646 194.704 122.477 194.237 121.605 193.395L112.355 184.145C111.513 183.273 111.046 182.104 111.057 180.892C111.068 179.679 111.554 178.519 112.411 177.661C113.269 176.804 114.429 176.318 115.642 176.307C116.854 176.296 118.023 176.763 118.895 177.605L120.25 178.96L126.697 172.513C123.448 168.185 121.342 163.107 120.574 157.75H111V162.375C111 163.602 110.513 164.778 109.645 165.645C108.778 166.513 107.602 167 106.375 167C105.148 167 103.972 166.513 103.105 165.645C102.237 164.778 101.75 163.602 101.75 162.375V143.875C101.75 142.648 102.237 141.472 103.105 140.605C103.972 139.737 105.148 139.25 106.375 139.25C107.602 139.25 108.778 139.737 109.645 140.605C110.513 141.472 111 142.648 111 143.875V148.5H120.574C121.342 143.143 123.448 138.065 126.697 133.737L120.25 127.29L118.895 128.645C118.023 129.487 116.854 129.954 115.642 129.943C114.429 129.932 113.269 129.446 112.411 128.589C111.554 127.731 111.068 126.571 111.057 125.358C111.046 124.146 111.513 122.977 112.355 122.105L121.605 112.855C122.477 112.013 123.646 111.546 124.858 111.557C126.071 111.568 127.231 112.054 128.089 112.911C128.946 113.769 129.432 114.929 129.443 116.142C129.454 117.354 128.987 118.523 128.145 119.395L126.79 120.75L133.237 127.197C137.565 123.948 142.643 121.842 148 121.074V111.5H143.375C142.148 111.5 140.972 111.013 140.105 110.145C139.237 109.278 138.75 108.102 138.75 106.875Z" fill="white"/>
</svg>
